<svg xmlns="http://www.w3.org/2000/svg" xmlns:xlink="http://www.w3.org/1999/xlink" width="1080" zoomAndPan="magnify" viewBox="0 0 810 809.999993" height="1080" preserveAspectRatio="xMidYMid meet" version="1.0"><defs><clipPath id="5ed39cc357"><path d="M 395 159.359375 L 414 159.359375 L 414 232 L 395 232 Z M 395 159.359375 " clip-rule="nonzero"/></clipPath><clipPath id="a85dbae660"><path d="M 395 577 L 414 577 L 414 650.609375 L 395 650.609375 Z M 395 577 " clip-rule="nonzero"/></clipPath></defs><rect x="-81" width="972" fill="#ffffff" y="-80.999999" height="971.999992" fill-opacity="1"/><rect x="-81" width="972" fill="#ffffff" y="-80.999999" height="971.999992" fill-opacity="1"/><g clip-path="url(#5ed39cc357)"><path fill="#000000" d="M 404.554688 231.316406 C 409.882812 231.316406 413.4375 227.761719 413.4375 222.433594 L 413.4375 168.242188 C 413.4375 162.910156 409.882812 159.359375 404.554688 159.359375 C 399.222656 159.359375 395.667969 162.910156 395.667969 168.242188 L 395.667969 223.320312 C 395.667969 227.761719 399.222656 231.316406 404.554688 231.316406 Z M 404.554688 231.316406 " fill-opacity="1" fill-rule="nonzero"/></g><g clip-path="url(#a85dbae660)"><path fill="#000000" d="M 404.554688 577.785156 C 399.222656 577.785156 395.667969 581.335938 395.667969 586.667969 L 395.667969 641.746094 C 395.667969 647.078125 399.222656 650.632812 404.554688 650.632812 C 409.882812 650.632812 413.4375 647.078125 413.4375 641.746094 L 413.4375 586.667969 C 413.4375 581.335938 409.882812 577.785156 404.554688 577.785156 Z M 404.554688 577.785156 " fill-opacity="1" fill-rule="nonzero"/></g><path fill="#000000" d="M 576.898438 282.84375 L 626.648438 243.753906 C 630.203125 241.089844 631.089844 234.871094 628.425781 231.316406 C 625.761719 227.761719 619.542969 226.875 615.988281 229.539062 L 566.238281 268.628906 C 562.683594 271.292969 561.796875 277.511719 564.460938 281.066406 C 567.128906 285.507812 572.457031 285.507812 576.898438 282.84375 Z M 576.898438 282.84375 " fill-opacity="1" fill-rule="nonzero"/><path fill="#000000" d="M 232.207031 526.257812 L 182.460938 564.457031 C 178.90625 567.125 178.015625 573.34375 180.683594 576.894531 C 183.347656 580.449219 189.566406 581.335938 193.121094 578.671875 L 242.867188 539.585938 C 246.421875 536.917969 247.3125 530.699219 244.644531 527.148438 C 241.980469 523.59375 236.648438 523.59375 232.207031 526.257812 Z M 232.207031 526.257812 " fill-opacity="1" fill-rule="nonzero"/><path fill="#000000" d="M 576.898438 526.257812 C 573.34375 523.59375 567.128906 523.59375 564.460938 528.035156 C 561.796875 531.589844 561.796875 537.808594 566.238281 540.472656 L 615.988281 579.5625 C 619.542969 582.226562 625.761719 582.226562 628.425781 577.785156 C 631.089844 574.230469 631.089844 568.011719 626.648438 565.347656 Z M 576.898438 526.257812 " fill-opacity="1" fill-rule="nonzero"/><path fill="#000000" d="M 232.207031 282.84375 C 235.761719 285.507812 241.980469 285.507812 244.644531 281.066406 C 247.3125 277.511719 247.3125 271.292969 242.867188 268.628906 L 193.121094 229.539062 C 189.566406 226.875 183.347656 226.875 180.683594 231.316406 C 178.015625 235.757812 178.015625 241.089844 182.460938 243.753906 Z M 232.207031 282.84375 " fill-opacity="1" fill-rule="nonzero"/><path fill="#000000" d="M 492.503906 244.640625 C 496.945312 247.308594 502.273438 245.53125 504.941406 241.089844 L 532.480469 190.453125 C 535.144531 186.007812 533.367188 180.679688 528.925781 178.015625 C 524.484375 175.347656 519.15625 177.125 516.488281 181.566406 L 488.949219 232.203125 C 486.285156 236.648438 488.0625 241.976562 492.503906 244.640625 Z M 492.503906 244.640625 " fill-opacity="1" fill-rule="nonzero"/><path fill="#000000" d="M 316.605469 564.457031 C 312.164062 561.792969 306.832031 563.570312 304.167969 568.011719 L 276.628906 618.648438 C 273.960938 623.089844 275.738281 628.421875 280.179688 631.085938 C 284.621094 633.753906 289.953125 631.976562 292.617188 627.535156 L 320.15625 576.894531 C 322.824219 572.453125 321.046875 567.125 316.605469 564.457031 Z M 316.605469 564.457031 " fill-opacity="1" fill-rule="nonzero"/><path fill="#000000" d="M 689.722656 488.058594 L 624.871094 466.738281 C 620.429688 464.960938 615.097656 467.625 613.324219 472.066406 C 611.546875 476.507812 614.210938 481.839844 618.652344 483.617188 L 683.503906 504.9375 C 687.945312 506.714844 693.277344 504.050781 695.054688 499.605469 C 696.832031 495.164062 694.164062 489.835938 689.722656 488.058594 Z M 689.722656 488.058594 " fill-opacity="1" fill-rule="nonzero"/><path fill="#000000" d="M 119.382812 321.042969 L 184.234375 342.363281 C 188.675781 344.140625 194.007812 341.476562 195.785156 337.035156 C 197.5625 332.589844 194.894531 327.261719 190.453125 325.484375 L 125.601562 304.164062 C 121.160156 302.386719 115.832031 305.050781 114.054688 309.492188 C 112.277344 313.9375 114.941406 319.265625 119.382812 321.042969 Z M 119.382812 321.042969 " fill-opacity="1" fill-rule="nonzero"/><path fill="#000000" d="M 615.097656 338.808594 C 616.875 343.253906 621.316406 345.917969 626.648438 345.027344 L 692.386719 324.597656 C 696.832031 322.820312 699.496094 318.378906 698.605469 313.046875 C 696.832031 308.605469 692.386719 305.941406 687.058594 306.828125 L 621.316406 327.261719 C 615.988281 329.039062 613.324219 334.367188 615.097656 338.808594 Z M 615.097656 338.808594 " fill-opacity="1" fill-rule="nonzero"/><path fill="#000000" d="M 194.007812 470.289062 C 192.230469 465.847656 187.789062 463.183594 182.460938 464.070312 L 117.605469 484.503906 C 113.164062 486.28125 110.5 490.722656 111.390625 496.054688 C 113.164062 500.496094 117.605469 503.160156 122.9375 502.273438 L 188.675781 481.839844 C 193.121094 480.0625 195.785156 474.730469 194.007812 470.289062 Z M 194.007812 470.289062 " fill-opacity="1" fill-rule="nonzero"/><path fill="#000000" d="M 500.5 568.902344 C 497.832031 564.457031 492.503906 562.683594 488.0625 565.347656 C 483.621094 568.011719 481.84375 573.34375 484.507812 577.785156 L 511.160156 628.421875 C 513.824219 632.863281 519.15625 634.640625 523.597656 631.976562 C 528.039062 629.308594 529.816406 623.980469 527.148438 619.539062 Z M 500.5 568.902344 " fill-opacity="1" fill-rule="nonzero"/><path fill="#000000" d="M 308.609375 240.199219 C 311.273438 244.640625 316.605469 246.417969 321.046875 243.753906 C 325.488281 241.089844 327.265625 235.757812 324.597656 231.316406 L 297.949219 180.679688 C 295.28125 176.238281 289.953125 174.460938 285.511719 177.125 C 281.070312 179.789062 279.292969 185.121094 281.957031 189.5625 Z M 308.609375 240.199219 " fill-opacity="1" fill-rule="nonzero"/><path fill="#000000" d="M 404.554688 285.507812 C 277.515625 285.507812 176.242188 393.890625 171.796875 398.332031 C 168.246094 401.886719 168.246094 407.214844 171.796875 410.769531 C 176.242188 415.210938 277.515625 523.59375 404.554688 523.59375 C 531.59375 523.59375 632.867188 415.210938 637.308594 410.769531 C 640.863281 407.214844 640.863281 401.886719 637.308594 398.332031 C 632.867188 393.890625 531.59375 285.507812 404.554688 285.507812 Z M 404.554688 505.824219 C 348.585938 505.824219 303.277344 460.519531 303.277344 404.550781 C 303.277344 348.582031 348.585938 303.273438 404.554688 303.273438 C 460.523438 303.273438 505.828125 348.582031 505.828125 404.550781 C 505.828125 460.519531 460.523438 505.824219 404.554688 505.824219 Z M 321.933594 319.265625 C 299.726562 340.585938 285.511719 370.792969 285.511719 404.550781 C 285.511719 438.308594 299.726562 468.515625 321.933594 489.835938 C 257.082031 465.847656 207.332031 420.542969 191.34375 404.550781 C 207.332031 388.558594 257.082031 343.253906 321.933594 319.265625 Z M 487.171875 489.835938 C 509.382812 468.515625 523.597656 438.308594 523.597656 404.550781 C 523.597656 370.792969 509.382812 340.585938 487.171875 319.265625 C 552.023438 343.253906 601.773438 388.558594 617.765625 404.550781 C 601.773438 420.542969 552.023438 465.847656 487.171875 489.835938 Z M 487.171875 489.835938 " fill-opacity="1" fill-rule="nonzero"/><path fill="#000000" d="M 404.554688 337.035156 C 367.242188 337.035156 337.035156 367.238281 337.035156 404.550781 C 337.035156 441.863281 367.242188 472.066406 404.554688 472.066406 C 441.867188 472.066406 472.070312 441.863281 472.070312 404.550781 C 472.070312 367.238281 441.867188 337.035156 404.554688 337.035156 Z M 404.554688 454.300781 C 377.015625 454.300781 354.804688 432.089844 354.804688 404.550781 C 354.804688 377.011719 377.015625 354.800781 404.554688 354.800781 C 432.09375 354.800781 454.304688 377.011719 454.304688 404.550781 C 454.304688 432.089844 432.09375 454.300781 404.554688 454.300781 Z M 404.554688 454.300781 " fill-opacity="1" fill-rule="nonzero"/></svg>