<svg xmlns="http://www.w3.org/2000/svg" xmlns:xlink="http://www.w3.org/1999/xlink" width="1080" zoomAndPan="magnify" viewBox="0 0 810 809.999993" height="1080" preserveAspectRatio="xMidYMid meet" version="1.0"><defs><clipPath id="c6336cd379"><path d="M 359 163 L 676 163 L 676 650.910156 L 359 650.910156 Z M 359 163 " clip-rule="nonzero"/></clipPath><clipPath id="dce74f38c7"><path d="M 128.878906 321 L 403 321 L 403 493 L 128.878906 493 Z M 128.878906 321 " clip-rule="nonzero"/></clipPath></defs><rect x="-81" width="972" fill="#ffffff" y="-80.999999" height="971.999992" fill-opacity="1"/><rect x="-81" width="972" fill="#ffffff" y="-80.999999" height="971.999992" fill-opacity="1"/><g clip-path="url(#c6336cd379)"><path fill="#000000" d="M 674.902344 316.316406 C 673.621094 303.507812 670.207031 278.746094 659.535156 256.972656 C 627.515625 192.929688 569.457031 159.628906 500.296875 164.324219 C 439.246094 168.59375 388.445312 207.019531 367.097656 263.804688 C 363.257812 274.476562 360.695312 286.859375 359.414062 299.667969 C 358.988281 304.363281 362.402344 308.632812 367.097656 309.058594 C 371.792969 309.488281 376.0625 306.070312 376.492188 301.375 C 377.34375 289.847656 379.90625 279.601562 383.320312 269.78125 C 402.105469 218.976562 447.359375 185.246094 501.578125 181.402344 C 563.90625 177.132812 615.988281 207.445312 644.164062 264.230469 C 651.421875 278.320312 656.121094 297.53125 657.828125 317.597656 C 663.375 380.785156 627.515625 429.03125 589.519531 479.835938 C 582.261719 489.65625 574.578125 499.476562 567.746094 509.722656 C 567.746094 509.722656 567.746094 510.148438 567.320312 510.148438 C 556.222656 528.507812 555.792969 546.441406 555.792969 563.515625 C 555.792969 575.472656 555.792969 586.574219 551.953125 598.101562 C 546.828125 613.46875 533.59375 625.851562 515.664062 631.402344 C 496.878906 637.378906 473.828125 630.121094 458.03125 613.46875 C 447.785156 602.796875 442.234375 587.425781 442.664062 572.910156 C 442.664062 568.214844 439.246094 564.371094 434.550781 563.945312 C 429.855469 563.945312 426.011719 567.359375 425.585938 572.054688 C 424.730469 591.269531 432.417969 611.335938 445.652344 624.996094 C 461.019531 641.222656 481.9375 650.1875 502.003906 650.1875 C 508.40625 650.1875 514.8125 649.332031 520.789062 647.625 C 544.269531 640.367188 561.34375 624.144531 568.175781 603.222656 C 572.871094 589.5625 572.871094 576.324219 572.871094 563.515625 C 572.871094 548.148438 572.871094 533.632812 581.410156 519.117188 C 588.238281 509.296875 595.496094 499.476562 602.753906 489.65625 C 641.175781 438.851562 680.878906 385.910156 674.902344 316.316406 Z M 674.902344 316.316406 " fill-opacity="1" fill-rule="nonzero"/></g><path fill="#000000" d="M 514.382812 236.480469 C 567.746094 236.480469 611.292969 278.746094 611.292969 330.40625 C 611.292969 335.101562 615.136719 338.945312 619.832031 338.945312 C 624.527344 338.945312 628.371094 335.101562 628.371094 330.40625 C 628.371094 269.355469 577.140625 219.402344 514.382812 219.402344 C 478.949219 219.402344 446.503906 235.199219 424.730469 262.097656 C 417.046875 271.914062 411.070312 282.589844 406.800781 294.117188 C 405.09375 298.386719 407.65625 303.507812 411.925781 305.21875 C 416.195312 306.925781 421.316406 304.363281 423.023438 300.09375 C 426.4375 290.273438 431.5625 281.308594 437.964844 272.769531 C 456.75 249.714844 484.5 236.480469 514.382812 236.480469 Z M 514.382812 236.480469 " fill-opacity="1" fill-rule="nonzero"/><path fill="#000000" d="M 491.757812 552.417969 C 496.453125 552.417969 500.296875 548.574219 500.296875 543.878906 C 500.296875 522.53125 502.003906 497.769531 515.238281 475.566406 C 521.640625 464.464844 528.898438 454.648438 536.15625 444.402344 C 542.558594 435.433594 549.390625 426.042969 555.792969 415.367188 C 582.691406 371.820312 583.972656 329.554688 560.0625 299.667969 C 544.269531 280.027344 515.238281 270.632812 490.476562 289.421875 C 486.632812 292.410156 486.207031 297.53125 488.769531 301.375 C 491.757812 305.21875 496.878906 305.644531 500.722656 303.082031 C 517.371094 290.273438 536.15625 297.960938 546.402344 310.339844 C 573.726562 344.496094 551.953125 388.898438 540.851562 406.402344 C 534.875 416.222656 528.046875 425.1875 521.640625 434.152344 C 514.382812 444.402344 506.699219 455.074219 499.867188 466.601562 C 485.355469 493.070312 483.21875 521.675781 483.21875 543.878906 C 483.21875 548.574219 487.0625 552.417969 491.757812 552.417969 Z M 491.757812 552.417969 " fill-opacity="1" fill-rule="nonzero"/><g clip-path="url(#dce74f38c7)"><path fill="#000000" d="M 393.566406 415.796875 L 358.988281 415.796875 C 356.425781 415.796875 353.863281 417.074219 352.15625 419.210938 L 339.777344 435.007812 L 324.40625 373.953125 C 323.554688 370.113281 320.136719 367.550781 316.296875 367.550781 C 312.453125 367.550781 309.039062 370.113281 307.757812 373.527344 L 286.839844 445.679688 L 266.773438 328.699219 C 265.917969 324.855469 262.929688 321.867188 258.664062 321.441406 C 254.820312 321.441406 250.976562 323.574219 250.125 327.417969 L 222.800781 421.34375 L 207.433594 378.222656 C 206.152344 375.234375 203.589844 373.101562 200.175781 372.675781 C 196.757812 372.246094 193.769531 373.953125 192.0625 376.945312 L 169.011719 415.796875 L 137.417969 415.796875 C 132.722656 415.796875 128.878906 419.636719 128.878906 424.335938 C 128.878906 429.03125 132.722656 432.871094 137.417969 432.871094 L 174.132812 432.871094 C 177.121094 432.871094 180.109375 431.164062 181.390625 428.605469 L 197.613281 400.851562 L 215.542969 451.660156 C 216.824219 455.074219 220.238281 457.636719 223.65625 457.207031 C 227.496094 457.207031 230.484375 454.648438 231.765625 451.230469 L 256.101562 367.976562 L 276.59375 485.386719 C 277.445312 489.230469 280.433594 492.21875 284.703125 492.644531 C 284.703125 492.644531 285.128906 492.644531 285.128906 492.644531 C 288.972656 492.644531 292.386719 490.082031 293.242188 486.667969 L 315.867188 408.964844 L 327.820312 456.355469 C 328.675781 459.34375 331.238281 461.90625 334.226562 462.757812 C 337.640625 463.613281 340.628906 462.332031 342.765625 459.769531 L 363.257812 433.300781 L 393.566406 433.300781 C 398.261719 433.300781 402.105469 429.457031 402.105469 424.761719 C 402.105469 420.066406 398.261719 415.796875 393.566406 415.796875 Z M 393.566406 415.796875 " fill-opacity="1" fill-rule="nonzero"/></g><path fill="#000000" d="M 443.941406 464.464844 C 440.101562 467.457031 439.246094 472.578125 442.234375 476.421875 C 444.796875 480.265625 450.347656 481.117188 454.1875 478.128906 C 472.546875 464.46875 483.21875 442.265625 483.21875 418.355469 C 483.21875 396.582031 474.253906 376.089844 458.457031 362.425781 C 455.042969 359.4375 449.492188 359.867188 446.503906 363.28125 C 443.515625 366.695312 443.941406 372.246094 447.359375 375.234375 C 459.3125 385.910156 466.140625 401.707031 466.140625 418.355469 C 466.140625 437.140625 458.03125 454.21875 443.941406 464.464844 Z M 443.941406 464.464844 " fill-opacity="1" fill-rule="nonzero"/><path fill="#000000" d="M 428.574219 447.816406 C 431.988281 450.804688 437.539062 450.378906 440.527344 446.535156 C 446.078125 440.132812 449.066406 430.738281 449.066406 420.917969 C 449.066406 409.390625 444.796875 398.71875 437.539062 392.3125 C 434.125 389.324219 428.574219 389.324219 425.585938 393.167969 C 422.597656 396.582031 422.597656 402.132812 426.4375 405.121094 C 429.855469 408.109375 431.988281 414.515625 431.988281 421.34375 C 431.988281 427.324219 430.28125 432.871094 427.292969 436.289062 C 424.304688 439.703125 424.730469 444.828125 428.574219 447.816406 Z M 428.574219 447.816406 " fill-opacity="1" fill-rule="nonzero"/></svg>