<svg xmlns="http://www.w3.org/2000/svg" xmlns:xlink="http://www.w3.org/1999/xlink" width="1080" zoomAndPan="magnify" viewBox="0 0 810 809.999993" height="1080" preserveAspectRatio="xMidYMid meet" version="1.0"><defs><clipPath id="5cd97531e7"><path d="M 175 159.226562 L 635 159.226562 L 635 649 L 175 649 Z M 175 159.226562 " clip-rule="nonzero"/></clipPath></defs><rect x="-81" width="972" fill="#ffffff" y="-80.999999" height="971.999992" fill-opacity="1"/><rect x="-81" width="972" fill="#ffffff" y="-80.999999" height="971.999992" fill-opacity="1"/><g clip-path="url(#5cd97531e7)"><path fill="#000000" d="M 444.652344 159.226562 C 414.195312 159.226562 389.332031 184.0625 389.332031 214.511719 C 389.332031 244.933594 414.195312 269.796875 444.652344 269.796875 C 475.171875 269.796875 500.039062 244.933594 500.039062 214.511719 C 500.039062 184.09375 475.171875 159.226562 444.652344 159.226562 Z M 444.652344 175.023438 C 466.617188 175.023438 484.222656 192.609375 484.222656 214.511719 C 484.222656 236.386719 466.617188 254.003906 444.652344 254.003906 C 422.753906 254.003906 405.144531 236.386719 405.144531 214.511719 C 405.144531 192.609375 422.753906 175.023438 444.652344 175.023438 Z M 389.453125 277.695312 C 372.15625 277.695312 355.445312 283.988281 342.472656 295.375 L 307.875 325.792969 C 301.234375 331.625 296.722656 339.492188 295.085938 348.191406 C 292.800781 360.625 288.847656 381.789062 285.480469 399.992188 C 283.78125 409.121094 282.238281 417.484375 281.09375 423.683594 C 280.507812 426.769531 280.042969 429.300781 279.703125 431.121094 C 279.363281 432.941406 279.242188 433.527344 279.117188 434.390625 C 278.683594 437.105469 278.652344 439.726562 278.652344 439.726562 C 278.652344 439.851562 278.652344 439.972656 278.652344 440.097656 C 278.933594 455.027344 291.289062 467.246094 306.300781 467.246094 C 317.820312 467.246094 327.769531 460.121094 331.875 450.03125 C 331.96875 449.875 332.925781 447.902344 333.453125 445.003906 C 333.484375 444.753906 337.128906 425.101562 340.648438 406.285156 C 343.863281 388.851562 346.609375 374.105469 347.074219 371.636719 L 365.976562 355.84375 L 351.304688 423.871094 C 350.285156 428.558594 349.855469 433.308594 349.882812 438.03125 L 349.882812 438.0625 C 349.730469 438.460938 349.605469 438.894531 349.515625 439.324219 L 330.394531 522.5 L 276.460938 599.164062 C 275.503906 600.492188 275.007812 602.097656 275.039062 603.730469 C 272.910156 607.957031 270.714844 612.246094 270.714844 617.304688 C 270.714844 634.675781 284.957031 648.898438 302.347656 648.898438 C 311.613281 648.898438 319.550781 644.363281 325.328125 637.976562 C 326.5 637.390625 327.488281 636.527344 328.230469 635.476562 L 387.136719 551.714844 C 387.601562 551.097656 387.941406 550.421875 388.1875 549.710938 L 397.453125 522.4375 L 481.597656 634.738281 C 482.429688 635.847656 483.542969 636.710938 484.808594 637.265625 C 491.789062 645.257812 502.105469 650.472656 513.78125 648.375 C 526.449219 646.089844 536.425781 636.1875 538.957031 623.660156 C 538.957031 623.660156 538.957031 623.628906 538.957031 623.628906 C 540.441406 616.257812 538.804688 609.285156 535.777344 603.300781 C 535.589844 602.25 535.21875 601.261719 534.664062 600.398438 L 439.339844 450.277344 L 450.707031 399.898438 L 453.828125 404.339844 C 456.578125 408.289062 460.5 411.3125 465.039062 412.980469 L 545.628906 442.75 C 546.09375 442.933594 546.617188 443.058594 547.113281 443.152344 C 548.195312 443.304688 549.613281 443.550781 551.4375 443.550781 C 566.632812 443.550781 579.113281 431.089844 579.113281 415.910156 C 579.113281 406.097656 573.894531 397.429688 566.140625 392.554688 C 565.707031 392.277344 565.246094 392.0625 564.75 391.84375 L 495.496094 365.4375 L 468.128906 321.320312 C 470.382812 298.460938 452.191406 277.695312 428.527344 277.695312 Z M 389.453125 293.492188 L 428.527344 293.492188 C 444.097656 293.492188 455.339844 307.558594 451.941406 322.707031 L 423.183594 450 C 422.722656 452.035156 423.09375 454.195312 424.203125 455.984375 L 517.179688 602.34375 L 523.542969 598.054688 C 519.960938 600.460938 518.941406 605.242188 521.257812 608.882812 C 523.390625 612.214844 524.347656 616.101562 523.453125 620.546875 C 522.214844 626.5625 516.933594 631.777344 510.972656 632.855469 C 503.898438 634.121094 497.96875 630.941406 494.632812 625.730469 C 492.46875 622.335938 488.050781 621.101562 484.4375 622.890625 L 490.308594 619.992188 L 375.367188 466.597656 C 366.9375 455.335938 363.785156 440.960938 366.75 427.199219 L 386.304688 336.777344 C 387.011719 333.476562 385.5625 330.082031 382.660156 328.355469 C 379.785156 326.59375 376.078125 326.871094 373.515625 329.03125 L 334.75 361.332031 C 333.328125 362.507812 332.371094 364.140625 332.03125 365.960938 C 332.03125 365.960938 328.570312 384.59375 325.082031 403.414062 C 321.589844 422.234375 318.160156 440.683594 317.882812 442.195312 C 317.820312 442.566406 317.390625 443.800781 317.390625 443.800781 C 317.328125 443.859375 317.296875 443.953125 317.296875 444.046875 C 315.503906 448.363281 311.335938 451.449219 306.300781 451.449219 C 299.75 451.449219 294.65625 446.390625 294.5 439.882812 C 294.53125 439.449219 294.625 437.566406 294.714844 436.886719 C 294.746094 436.886719 294.746094 436.886719 294.714844 436.886719 C 294.65625 437.382812 294.933594 435.808594 295.273438 433.988281 C 295.582031 432.167969 296.042969 429.636719 296.632812 426.523438 C 297.773438 420.351562 299.320312 411.992188 301.019531 402.890625 C 304.386719 384.6875 308.339844 363.523438 310.65625 351.089844 C 311.644531 345.847656 314.300781 341.15625 318.285156 337.671875 L 352.910156 307.25 C 363.011719 298.367188 376.015625 293.492188 389.453125 293.492188 Z M 463.402344 343.6875 L 483.480469 376.019531 C 484.375 377.46875 485.734375 378.609375 487.34375 379.226562 L 557.832031 406.128906 C 561.105469 408.257812 563.296875 411.714844 563.296875 415.910156 C 563.296875 422.542969 558.078125 427.757812 551.4375 427.757812 C 551.222656 427.757812 550.695312 427.664062 550.203125 427.632812 L 470.507812 398.171875 C 468.992188 397.613281 467.695312 396.628906 466.769531 395.300781 L 455.402344 379.105469 Z M 358.6875 469.960938 C 359.921875 472.058594 361.222656 474.125 362.703125 476.070312 L 385.964844 507.105469 L 373.546875 543.570312 L 315.78125 625.699219 C 315.753906 625.730469 315.753906 625.730469 315.753906 625.730469 C 315.566406 625.945312 315.414062 626.128906 315.257812 626.34375 C 312.386719 630.449219 307.75 633.101562 302.347656 633.101562 C 293.511719 633.101562 286.53125 626.128906 286.53125 617.304688 C 286.53125 613.914062 287.613281 610.859375 289.433594 608.265625 C 291.8125 604.875 291.195312 600.214844 287.984375 597.59375 L 293.820312 601.972656 L 344.230469 530.304688 C 344.820312 529.441406 345.25 528.515625 345.46875 527.5 Z M 183.730469 593.613281 C 179.375 593.613281 175.824219 597.160156 175.824219 601.511719 C 175.824219 605.859375 179.375 609.410156 183.730469 609.410156 C 188.085938 609.410156 191.640625 605.859375 191.640625 601.511719 C 191.640625 597.160156 188.085938 593.613281 183.730469 593.613281 Z M 215.363281 593.613281 C 211.007812 593.613281 207.453125 597.160156 207.453125 601.511719 C 207.453125 605.859375 211.007812 609.410156 215.363281 609.410156 C 219.71875 609.410156 223.269531 605.859375 223.269531 601.511719 C 223.269531 597.160156 219.71875 593.613281 215.363281 593.613281 Z M 246.992188 593.613281 C 242.636719 593.613281 239.085938 597.160156 239.085938 601.511719 C 239.085938 605.859375 242.636719 609.410156 246.992188 609.410156 C 251.347656 609.410156 254.898438 605.859375 254.898438 601.511719 C 254.898438 597.160156 251.347656 593.613281 246.992188 593.613281 Z M 373.515625 593.613281 C 369.160156 593.613281 365.605469 597.160156 365.605469 601.511719 C 365.605469 605.859375 369.160156 609.410156 373.515625 609.410156 C 377.871094 609.410156 381.421875 605.859375 381.421875 601.511719 C 381.421875 597.160156 377.871094 593.613281 373.515625 593.613281 Z M 405.144531 593.613281 C 400.789062 593.613281 397.238281 597.160156 397.238281 601.511719 C 397.238281 605.859375 400.789062 609.410156 405.144531 609.410156 C 409.5 609.410156 413.054688 605.859375 413.054688 601.511719 C 413.054688 597.160156 409.5 593.613281 405.144531 593.613281 Z M 436.777344 593.613281 C 432.421875 593.613281 428.867188 597.160156 428.867188 601.511719 C 428.867188 605.859375 432.421875 609.410156 436.777344 609.410156 C 441.132812 609.410156 444.683594 605.859375 444.683594 601.511719 C 444.683594 597.160156 441.132812 593.613281 436.777344 593.613281 Z M 563.296875 593.613281 C 558.941406 593.613281 555.390625 597.160156 555.390625 601.511719 C 555.390625 605.859375 558.941406 609.410156 563.296875 609.410156 C 567.652344 609.410156 571.207031 605.859375 571.207031 601.511719 C 571.207031 597.160156 567.652344 593.613281 563.296875 593.613281 Z M 594.929688 593.613281 C 590.574219 593.613281 587.023438 597.160156 587.023438 601.511719 C 587.023438 605.859375 590.574219 609.410156 594.929688 609.410156 C 599.285156 609.410156 602.835938 605.859375 602.835938 601.511719 C 602.835938 597.160156 599.285156 593.613281 594.929688 593.613281 Z M 626.558594 593.613281 C 622.203125 593.613281 618.652344 597.160156 618.652344 601.511719 C 618.652344 605.859375 622.203125 609.410156 626.558594 609.410156 C 630.914062 609.410156 634.46875 605.859375 634.46875 601.511719 C 634.46875 597.160156 630.914062 593.613281 626.558594 593.613281 Z M 626.558594 593.613281 " fill-opacity="1" fill-rule="nonzero"/></g></svg>