<svg xmlns="http://www.w3.org/2000/svg" xmlns:xlink="http://www.w3.org/1999/xlink" width="1080" zoomAndPan="magnify" viewBox="0 0 810 809.999993" height="1080" preserveAspectRatio="xMidYMid meet" version="1.0"><defs><clipPath id="2ca34fa47f"><path d="M 95 167 L 712 167 L 712 651.441406 L 95 651.441406 Z M 95 167 " clip-rule="nonzero"/></clipPath></defs><rect x="-81" width="972" fill="#ffffff" y="-80.999999" height="971.999992" fill-opacity="1"/><rect x="-81" width="972" fill="#ffffff" y="-80.999999" height="971.999992" fill-opacity="1"/><g clip-path="url(#2ca34fa47f)"><path fill="#000000" d="M 666.925781 341.605469 C 672.957031 308.582031 654.980469 282.460938 631.835938 270.015625 C 621.863281 264.714844 610.046875 261.511719 597.855469 261.390625 C 589.238281 236.621094 571.140625 214.933594 548.363281 202.242188 C 529.035156 191.523438 507.613281 188.320312 487.667969 193.125 C 435.097656 158.867188 326.144531 160.222656 285.761719 191.398438 C 276.40625 198.546875 270.742188 207.171875 268.773438 216.660156 C 247.105469 214.195312 224.203125 215.550781 204.753906 220.355469 C 175.574219 227.625 154.644531 242.660156 144.304688 263.730469 C 140.734375 270.875 138.640625 278.394531 137.777344 285.910156 C 112.785156 289.238281 96.90625 308.460938 95.796875 337.664062 C 94.6875 364.773438 106.507812 394.222656 127.191406 411.71875 C 126.207031 441.910156 135.808594 467.414062 154.890625 485.652344 C 172.25 502.164062 195.886719 510.914062 222.359375 510.914062 C 224.574219 510.914062 226.914062 510.789062 229.128906 510.667969 C 230.359375 516.582031 232.332031 521.386719 234.421875 525.207031 C 249.9375 554.78125 288.714844 569.8125 322.820312 569.8125 C 326.144531 569.8125 329.34375 569.6875 332.546875 569.320312 C 376.496094 589.40625 410.476562 615.773438 433.621094 647.8125 C 435.222656 650.03125 437.808594 651.261719 440.394531 651.261719 C 441.007812 651.261719 441.5 651.261719 442.117188 651.140625 L 495.917969 639.800781 C 499.980469 638.941406 502.8125 635.367188 502.566406 631.175781 C 501.949219 617.007812 497.519531 592.484375 491.238281 574.25 C 503.058594 576.710938 515.246094 577.945312 527.433594 577.945312 C 537.53125 577.945312 547.503906 577.082031 557.230469 575.480469 C 605.121094 567.226562 635.898438 540.484375 639.714844 504.875 C 643.53125 504.257812 647.101562 503.273438 650.425781 501.917969 C 686.5 486.761719 690.808594 468.03125 689.332031 456.570312 C 701.027344 451.148438 708.535156 441.292969 710.628906 428.109375 C 714.9375 401.246094 694.871094 362.183594 666.925781 341.605469 Z M 485.332031 625.015625 L 444.085938 633.640625 C 422.910156 605.917969 394.226562 582.382812 358.523438 563.40625 C 376.742188 556.136719 389.546875 542.949219 394.839844 525.574219 C 401.121094 525.207031 407.398438 523.972656 413.554688 522.25 C 424.265625 544.304688 445.441406 559.707031 470.925781 568.703125 C 476.835938 580.039062 483.359375 606.902344 485.332031 625.015625 Z M 554.398438 559.09375 C 545.78125 560.570312 536.914062 561.308594 527.804688 561.308594 C 487.054688 561.308594 444.949219 546.277344 429.3125 516.335938 C 435.960938 513.253906 442.117188 509.558594 447.65625 505.613281 C 461.445312 511.160156 476.957031 514.117188 492.472656 514.117188 C 520.789062 514.117188 548.855469 504.382812 565.847656 483.433594 C 582.46875 495.632812 603.644531 503.890625 622.601562 505.492188 C 617.1875 545.046875 569.664062 556.382812 554.398438 559.09375 Z M 694.007812 425.644531 C 692.902344 432.914062 689.207031 438.089844 682.929688 441.167969 C 676.15625 431.804688 664.707031 423.917969 651.164062 418.621094 C 650.796875 393.605469 639.101562 363.417969 612.753906 350.476562 C 608.566406 348.382812 603.519531 350.109375 601.550781 354.296875 C 599.457031 358.488281 601.179688 363.539062 605.367188 365.511719 C 623.710938 374.507812 632.574219 395.085938 634.175781 413.691406 C 626.050781 412.089844 617.679688 411.472656 609.304688 412.089844 C 604.628906 412.335938 601.179688 416.402344 601.425781 421.085938 C 601.671875 425.765625 605.734375 429.214844 610.414062 428.96875 C 620.878906 428.355469 631.21875 429.832031 640.332031 432.667969 C 640.453125 432.667969 640.453125 432.667969 640.578125 432.789062 C 655.964844 437.59375 667.910156 446.222656 671.726562 454.847656 C 671.726562 454.847656 671.726562 454.96875 671.726562 454.96875 C 672.09375 455.832031 672.339844 456.695312 672.585938 457.558594 C 674.925781 467.414062 664.460938 478.011719 644.023438 486.636719 C 640.578125 488.117188 636.515625 488.855469 632.082031 489.101562 C 631.960938 489.101562 631.835938 489.101562 631.714844 489.101562 C 631.589844 489.101562 631.46875 489.101562 631.21875 489.101562 C 607.335938 489.839844 573.109375 473.824219 559.320312 453.246094 C 550.089844 439.566406 551.441406 427.121094 563.382812 415.046875 C 566.707031 411.71875 566.585938 406.421875 563.382812 403.09375 C 560.058594 399.765625 554.765625 399.890625 551.441406 403.09375 C 533.960938 420.714844 531.867188 442.402344 545.410156 462.488281 C 547.75 465.9375 550.335938 469.140625 553.289062 472.222656 C 533.960938 496.617188 493.949219 502.164062 462.308594 492.675781 C 462.675781 492.183594 463.167969 491.8125 463.539062 491.320312 C 466.617188 487.871094 466.246094 482.449219 462.800781 479.492188 C 459.351562 476.535156 453.9375 476.78125 450.980469 480.230469 C 443.226562 489.101562 430.175781 498.222656 415.769531 503.765625 C 415.769531 503.765625 415.648438 503.765625 415.648438 503.765625 C 415.648438 503.765625 415.523438 503.765625 415.523438 503.765625 C 407.03125 506.96875 398.042969 508.816406 389.425781 508.695312 C 376.621094 508.449219 366.523438 503.765625 359.136719 494.648438 C 356.183594 491.074219 350.890625 490.457031 347.320312 493.414062 C 343.75 496.371094 343.132812 501.671875 346.085938 505.246094 C 354.214844 515.226562 364.925781 521.757812 377.605469 524.21875 C 369.480469 543.8125 348.917969 549.972656 336.363281 551.820312 C 301.273438 557.121094 262.246094 541.59375 249.441406 517.195312 C 239.222656 497.726562 246.117188 474.191406 269.511719 449.054688 C 295.242188 421.332031 417.742188 346.65625 483.238281 344.933594 C 487.914062 344.808594 491.609375 340.988281 491.484375 336.308594 C 491.363281 331.625 487.546875 327.929688 482.867188 328.050781 C 461.199219 328.667969 435.46875 336.0625 411.585938 345.425781 C 404.691406 324.726562 408.136719 300.082031 428.699219 289.605469 C 432.882812 287.511719 434.484375 282.460938 432.390625 278.269531 C 430.296875 274.082031 425.25 272.480469 421.0625 274.574219 C 391.515625 289.605469 386.347656 323.863281 395.949219 351.832031 C 379.820312 358.734375 365.292969 366.128906 354.335938 371.917969 C 331.066406 384.242188 308.414062 398.042969 290.195312 410.734375 C 290.5625 397.796875 295.855469 384.363281 301.398438 370.441406 C 309.890625 349 319.25 325.09375 311.125 299.957031 C 327.128906 298.726562 342.886719 296.628906 355.8125 289.605469 C 375.019531 279.257812 383.882812 260.527344 383.023438 232.433594 C 382.898438 227.75 379.082031 224.175781 374.28125 224.300781 C 369.601562 224.421875 366.03125 228.367188 366.15625 233.046875 C 367.632812 277.40625 341.65625 281.226562 299.058594 283.9375 C 270.003906 285.785156 237.132812 287.757812 227.773438 318.070312 C 226.421875 322.507812 228.882812 327.1875 233.316406 328.667969 C 234.175781 328.914062 235.039062 329.039062 235.777344 329.039062 C 239.347656 329.039062 242.671875 326.695312 243.78125 323.121094 C 248.949219 306.488281 266.0625 303.160156 293.519531 301.3125 C 302.382812 322.261719 294.257812 342.714844 285.640625 364.402344 C 278.25 383.132812 270.617188 402.476562 274.066406 422.6875 C 266.925781 428.230469 261.140625 433.40625 257.074219 437.71875 C 236.886719 459.40625 229.5 478.382812 228.265625 493.785156 C 203.769531 495.140625 181.976562 487.992188 166.585938 473.328125 C 153.167969 460.636719 145.535156 443.140625 144.179688 422.316406 C 150.335938 425.027344 157.105469 426.753906 164.246094 427.367188 C 164.496094 427.367188 164.742188 427.367188 164.988281 427.367188 C 169.296875 427.367188 172.988281 424.042969 173.359375 419.605469 C 173.726562 414.921875 170.28125 410.855469 165.601562 410.488281 C 132.855469 407.898438 111.433594 370.316406 112.664062 338.277344 C 113.03125 328.421875 116.480469 306.980469 138.148438 302.914062 C 139.132812 309.691406 141.347656 316.46875 144.550781 322.753906 C 152.675781 338.402344 166.710938 349.367188 183.578125 353.683594 C 189.117188 377.339844 204.628906 397.917969 232.207031 402.230469 C 232.699219 402.355469 233.070312 402.355469 233.5625 402.355469 C 237.625 402.355469 241.195312 399.398438 241.808594 395.207031 C 242.546875 390.648438 239.347656 386.335938 234.792969 385.597656 C 207.953125 381.40625 196.996094 354.296875 198.105469 329.285156 C 198.351562 324.601562 194.65625 320.660156 190.101562 320.535156 C 185.421875 320.289062 181.484375 323.984375 181.359375 328.542969 C 181.238281 330.761719 181.238281 332.980469 181.359375 335.074219 C 172.128906 331.132812 164.371094 324.109375 159.691406 314.867188 C 156.246094 308.214844 154.523438 301.066406 154.398438 293.796875 C 154.398438 293.796875 154.398438 293.671875 154.398438 293.671875 C 154.398438 293.550781 154.398438 293.550781 154.398438 293.425781 C 154.398438 285.910156 156.121094 278.269531 159.691406 271.125 C 178.40625 232.925781 236.515625 229.722656 269.386719 233.664062 C 270.742188 239.457031 273.203125 245.492188 276.898438 251.65625 C 279.359375 255.597656 284.53125 256.828125 288.46875 254.363281 C 292.410156 251.902344 293.640625 246.726562 291.179688 242.78125 C 287.363281 236.621094 285.390625 231.078125 285.023438 225.902344 C 285.023438 225.777344 285.023438 225.777344 285.023438 225.65625 C 284.53125 217.644531 288.222656 210.746094 296.226562 204.582031 C 314.570312 190.535156 353.105469 182.773438 394.347656 184.867188 C 436.945312 187.085938 473.632812 199.160156 490.007812 216.414062 C 505.519531 232.800781 502.566406 253.996094 480.898438 279.132812 C 477.820312 282.707031 478.3125 288.003906 481.761719 290.960938 C 483.359375 292.316406 485.332031 292.933594 487.175781 292.933594 C 489.515625 292.933594 491.855469 291.949219 493.578125 289.976562 C 528.050781 249.683594 516.601562 221.835938 504.535156 207.539062 C 519.0625 207.171875 531.375 211.855469 540.117188 216.78125 C 558.335938 226.886719 572.988281 243.890625 580.621094 263.359375 C 565.847656 267.179688 551.441406 276.296875 540.117188 292.6875 C 529.40625 308.089844 524.726562 327.929688 520.171875 347.152344 C 514.878906 369.332031 509.828125 390.402344 496.65625 398.164062 C 490.378906 401.863281 482.007812 402.847656 471.171875 400.753906 C 471.171875 399.765625 471.171875 398.78125 471.171875 397.671875 C 471.046875 392.988281 467.230469 389.292969 462.554688 389.417969 C 457.875 389.539062 454.183594 393.359375 454.304688 398.042969 C 454.304688 400.507812 454.058594 402.722656 453.691406 404.941406 C 453.691406 404.941406 453.691406 405.066406 453.691406 405.066406 C 451.105469 416.648438 441.871094 424.410156 433.746094 429.09375 C 417.125 438.828125 395.457031 441.046875 387.824219 436.488281 C 383.882812 434.144531 378.714844 435.378906 376.25 439.445312 C 373.910156 443.386719 375.144531 448.5625 379.207031 451.027344 C 384.5 454.230469 391.761719 455.710938 399.765625 455.710938 C 413.183594 455.710938 428.945312 451.519531 442.238281 443.757812 C 454.304688 436.734375 462.800781 427.613281 467.355469 417.265625 C 472.402344 418.25 477.082031 418.742188 481.511719 418.742188 C 490.5 418.742188 498.378906 416.769531 505.152344 412.703125 C 524.480469 401.246094 530.511719 375.738281 536.421875 351.09375 C 540.609375 333.472656 544.917969 315.113281 553.90625 302.296875 C 564.371094 287.140625 578.035156 279.996094 591.578125 278.394531 C 591.578125 278.394531 591.578125 278.394531 591.699219 278.394531 C 592.191406 278.394531 592.808594 278.269531 593.300781 278.269531 C 604.011719 277.40625 614.722656 279.871094 623.710938 284.800781 C 642.425781 294.90625 659.660156 318.316406 646.488281 351.339844 C 644.761719 355.652344 646.855469 360.582031 651.164062 362.308594 C 655.105469 363.910156 659.414062 362.308594 661.507812 358.855469 C 682.066406 376.476562 697.085938 406.296875 694.007812 425.644531 Z M 694.007812 425.644531 " fill-opacity="1" fill-rule="nonzero"/></g></svg>