<svg xmlns="http://www.w3.org/2000/svg" xmlns:xlink="http://www.w3.org/1999/xlink" width="1080" zoomAndPan="magnify" viewBox="0 0 810 809.999993" height="1080" preserveAspectRatio="xMidYMid meet" version="1.0"><defs><clipPath id="bdeb5ae317"><path d="M 454 356 L 650.78125 356 L 650.78125 455 L 454 455 Z M 454 356 " clip-rule="nonzero"/></clipPath><clipPath id="99e1e45342"><path d="M 159.53125 306 L 275 306 L 275 504 L 159.53125 504 Z M 159.53125 306 " clip-rule="nonzero"/></clipPath><clipPath id="1e0cd358c0"><path d="M 306 159.53125 L 504 159.53125 L 504 356 L 306 356 Z M 306 159.53125 " clip-rule="nonzero"/></clipPath><clipPath id="9c67730191"><path d="M 249 421 L 561 421 L 561 650.78125 L 249 650.78125 Z M 249 421 " clip-rule="nonzero"/></clipPath></defs><rect x="-81" width="972" fill="#ffffff" y="-80.999999" height="971.999992" fill-opacity="1"/><rect x="-81" width="972" fill="#ffffff" y="-80.999999" height="971.999992" fill-opacity="1"/><g clip-path="url(#bdeb5ae317)"><path fill="#000000" d="M 552.472656 356.054688 C 521.371094 356.054688 491.5 367.613281 468.480469 388.484375 L 456.921875 399.019531 C 455.183594 400.554688 454.261719 402.804688 454.261719 405.054688 C 454.261719 407.304688 455.285156 409.558594 456.921875 411.089844 L 468.480469 421.628906 C 491.5 442.601562 521.371094 454.058594 552.472656 454.058594 C 583.570312 454.058594 613.441406 442.496094 636.460938 421.628906 L 648.019531 411.089844 C 649.761719 409.558594 650.679688 407.304688 650.679688 405.054688 C 650.679688 402.804688 649.65625 400.554688 648.019531 399.019531 L 636.460938 388.484375 C 613.441406 367.511719 583.570312 356.054688 552.472656 356.054688 Z M 585.207031 405.054688 C 585.207031 422.34375 571.804688 436.460938 554.824219 437.691406 C 554.007812 437.691406 553.289062 437.691406 552.472656 437.691406 C 551.652344 437.691406 550.9375 437.691406 550.117188 437.691406 C 533.136719 436.460938 519.734375 422.34375 519.734375 405.054688 C 519.734375 387.765625 533.136719 373.648438 550.117188 372.421875 C 550.9375 372.421875 551.652344 372.421875 552.472656 372.421875 C 553.289062 372.421875 554.007812 372.421875 554.824219 372.421875 C 571.804688 373.648438 585.207031 387.765625 585.207031 405.054688 Z M 474.621094 405.054688 L 479.53125 400.554688 C 488.535156 392.371094 498.660156 385.925781 509.605469 381.21875 C 505.71875 388.277344 503.367188 396.359375 503.367188 405.054688 C 503.367188 413.75 505.617188 421.832031 509.605469 428.890625 C 498.660156 424.1875 488.535156 417.636719 479.53125 409.558594 Z M 625.414062 409.558594 C 616.410156 417.742188 606.28125 424.1875 595.335938 428.890625 C 599.324219 421.832031 601.574219 413.75 601.574219 405.054688 C 601.574219 396.359375 599.324219 388.277344 595.335938 381.21875 C 606.28125 385.925781 616.410156 392.472656 625.414062 400.554688 L 630.324219 405.054688 Z M 625.414062 409.558594 " fill-opacity="1" fill-rule="nonzero"/></g><path fill="#000000" d="M 544.289062 396.871094 L 560.65625 396.871094 L 560.65625 413.238281 L 544.289062 413.238281 Z M 544.289062 396.871094 " fill-opacity="1" fill-rule="nonzero"/><g clip-path="url(#99e1e45342)"><path fill="#000000" d="M 216.925781 306.847656 C 185.3125 306.847656 159.636719 332.523438 159.636719 364.136719 L 159.636719 466.4375 C 159.636719 486.792969 176.105469 503.265625 196.464844 503.265625 C 216.820312 503.265625 233.292969 486.792969 233.292969 466.4375 L 233.292969 462.957031 C 233.292969 448.941406 238.714844 435.746094 248.636719 425.824219 C 265.109375 409.351562 274.210938 387.460938 274.210938 364.136719 C 274.210938 332.523438 248.535156 306.847656 216.925781 306.847656 Z M 237.078125 414.261719 C 224.085938 427.253906 216.925781 444.542969 216.925781 462.957031 L 216.925781 466.4375 C 216.925781 477.6875 207.71875 486.894531 196.464844 486.894531 C 185.210938 486.894531 176.003906 477.6875 176.003906 466.4375 L 176.003906 364.136719 C 176.003906 341.527344 194.316406 323.214844 216.925781 323.214844 C 239.53125 323.214844 257.84375 341.527344 257.84375 364.136719 C 257.84375 383.0625 250.480469 400.859375 237.078125 414.261719 Z M 237.078125 414.261719 " fill-opacity="1" fill-rule="nonzero"/></g><path fill="#000000" d="M 216.925781 347.765625 C 203.421875 347.765625 192.371094 358.816406 192.371094 372.320312 L 192.371094 380.503906 L 208.738281 380.503906 L 208.738281 372.320312 C 208.738281 367.816406 212.421875 364.136719 216.925781 364.136719 C 221.425781 364.136719 225.109375 367.816406 225.109375 372.320312 L 225.109375 373.75 C 225.109375 375.898438 224.289062 377.945312 222.753906 379.582031 L 212.21875 390.121094 C 199.429688 402.804688 192.371094 419.785156 192.371094 437.792969 L 208.738281 437.792969 C 208.738281 424.1875 214.058594 411.296875 223.675781 401.679688 L 234.316406 391.039062 C 238.917969 386.4375 241.476562 380.195312 241.476562 373.648438 L 241.476562 372.320312 C 241.476562 358.816406 230.425781 347.765625 216.925781 347.765625 Z M 216.925781 347.765625 " fill-opacity="1" fill-rule="nonzero"/><g clip-path="url(#1e0cd358c0)"><path fill="#000000" d="M 315.132812 253.648438 C 315.132812 264.085938 319.53125 273.496094 326.488281 280.144531 C 314.824219 287.308594 306.949219 300.300781 306.949219 315.03125 C 306.949219 337.640625 325.261719 355.949219 347.871094 355.949219 L 372.421875 355.949219 C 385.824219 355.949219 397.691406 349.507812 405.15625 339.582031 C 412.625 349.507812 424.492188 355.949219 437.894531 355.949219 L 462.445312 355.949219 C 485.054688 355.949219 503.367188 337.640625 503.367188 315.03125 C 503.367188 300.300781 495.59375 287.410156 483.828125 280.144531 C 490.785156 273.394531 495.183594 263.980469 495.183594 253.648438 C 495.183594 240.042969 487.816406 228.175781 476.769531 221.730469 C 483.113281 215.082031 487 206.183594 487 196.359375 C 487 186.539062 483.214844 177.230469 476.257812 170.273438 C 469.300781 163.316406 459.992188 159.53125 450.171875 159.53125 L 437.894531 159.53125 C 424.492188 159.53125 412.625 165.976562 405.15625 175.902344 C 397.691406 165.976562 385.824219 159.53125 372.421875 159.53125 L 360.144531 159.53125 C 350.324219 159.53125 341.015625 163.316406 334.058594 170.273438 C 327.101562 177.230469 323.316406 186.539062 323.316406 196.359375 C 323.316406 206.183594 327.203125 215.183594 333.546875 221.730469 C 322.5 228.175781 315.132812 240.042969 315.132812 253.648438 Z M 437.894531 175.902344 L 450.171875 175.902344 C 455.59375 175.902344 460.808594 178.050781 464.59375 181.9375 C 468.480469 185.824219 470.628906 190.9375 470.628906 196.359375 C 470.628906 207.613281 461.421875 216.820312 450.171875 216.820312 C 447.917969 216.820312 446.078125 214.980469 446.078125 212.730469 L 446.078125 200.453125 L 429.710938 200.453125 L 429.710938 212.730469 C 429.710938 223.984375 438.917969 233.191406 450.171875 233.191406 L 458.355469 233.191406 C 469.609375 233.191406 478.816406 242.398438 478.816406 253.648438 C 478.816406 264.902344 469.609375 274.109375 458.355469 274.109375 C 451.601562 274.109375 446.078125 268.585938 446.078125 261.832031 L 446.078125 249.558594 L 429.710938 249.558594 L 429.710938 261.832031 C 429.710938 277.589844 442.601562 290.476562 458.355469 290.476562 L 462.445312 290.476562 C 475.949219 290.476562 487 301.527344 487 315.03125 C 487 328.535156 475.949219 339.582031 462.445312 339.582031 L 454.261719 339.582031 C 449.761719 339.582031 446.078125 335.898438 446.078125 331.398438 C 446.078125 326.898438 449.761719 323.214844 454.261719 323.214844 L 462.445312 323.214844 L 462.445312 306.847656 L 454.261719 306.847656 C 440.757812 306.847656 429.710938 317.894531 429.710938 331.398438 C 429.710938 333.855469 430.121094 336.308594 430.734375 338.558594 C 420.707031 335.492188 413.34375 326.078125 413.34375 315.03125 L 413.34375 200.453125 C 413.34375 186.949219 424.390625 175.902344 437.894531 175.902344 Z M 351.960938 233.191406 L 360.144531 233.191406 C 371.398438 233.191406 380.605469 223.984375 380.605469 212.730469 L 380.605469 200.453125 L 364.238281 200.453125 L 364.238281 212.730469 C 364.238281 214.980469 362.394531 216.820312 360.144531 216.820312 C 348.890625 216.820312 339.683594 207.613281 339.683594 196.359375 C 339.683594 190.9375 341.832031 185.722656 345.722656 181.9375 C 349.609375 178.050781 354.722656 175.902344 360.144531 175.902344 L 372.421875 175.902344 C 385.925781 175.902344 396.972656 186.949219 396.972656 200.453125 L 396.972656 315.03125 C 396.972656 326.078125 389.609375 335.492188 379.582031 338.558594 C 380.296875 336.308594 380.605469 333.957031 380.605469 331.398438 C 380.605469 317.894531 369.558594 306.847656 356.054688 306.847656 L 347.871094 306.847656 L 347.871094 323.214844 L 356.054688 323.214844 C 360.554688 323.214844 364.238281 326.898438 364.238281 331.398438 C 364.238281 335.898438 360.554688 339.582031 356.054688 339.582031 L 347.871094 339.582031 C 334.367188 339.582031 323.316406 328.535156 323.316406 315.03125 C 323.316406 301.527344 334.367188 290.476562 347.871094 290.476562 L 351.960938 290.476562 C 367.714844 290.476562 380.605469 277.589844 380.605469 261.832031 L 380.605469 249.558594 L 364.238281 249.558594 L 364.238281 261.832031 C 364.238281 268.585938 358.714844 274.109375 351.960938 274.109375 C 340.707031 274.109375 331.5 264.902344 331.5 253.648438 C 331.5 242.398438 340.707031 233.191406 351.960938 233.191406 Z M 351.960938 233.191406 " fill-opacity="1" fill-rule="nonzero"/></g><path fill="#000000" d="M 310.324219 196.359375 L 303.574219 181.425781 C 255.796875 203.214844 215.492188 240.554688 190.121094 286.488281 L 204.441406 294.367188 C 228.175781 251.5 265.722656 216.617188 310.324219 196.359375 Z M 310.324219 196.359375 " fill-opacity="1" fill-rule="nonzero"/><path fill="#000000" d="M 190.121094 523.621094 C 200.25 542.035156 212.832031 559.121094 227.359375 574.464844 L 239.226562 563.214844 C 225.621094 548.992188 213.957031 533.035156 204.441406 515.847656 Z M 190.121094 523.621094 " fill-opacity="1" fill-rule="nonzero"/><path fill="#000000" d="M 571.089844 563.109375 L 582.957031 574.363281 C 618.660156 536.820312 641.371094 489.964844 648.328125 438.917969 L 632.164062 436.667969 C 625.617188 484.339844 604.441406 528.125 571.089844 563.109375 Z M 571.089844 563.109375 " fill-opacity="1" fill-rule="nonzero"/><path fill="#000000" d="M 630.9375 365.566406 L 647.101562 362.804688 C 633.1875 283.011719 580.808594 215.183594 506.84375 181.527344 L 499.992188 196.359375 C 569.042969 227.769531 617.945312 290.988281 630.9375 365.566406 Z M 630.9375 365.566406 " fill-opacity="1" fill-rule="nonzero"/><g clip-path="url(#9c67730191)"><path fill="#000000" d="M 552.472656 519.632812 L 437.894531 519.632812 C 434.417969 519.632812 431.347656 517.382812 430.222656 514.3125 L 439.839844 504.695312 C 449.148438 495.386719 454.261719 483.109375 454.261719 470.015625 L 454.261719 429.609375 C 454.261719 425.105469 450.578125 421.421875 446.078125 421.421875 L 364.238281 421.421875 C 363.625 421.421875 363.011719 421.527344 362.5 421.628906 C 360.863281 421.21875 359.019531 421.421875 357.484375 422.140625 L 282.601562 455.285156 C 278.507812 457.125 276.566406 461.933594 278.40625 466.128906 C 283.726562 478.097656 293.34375 487.304688 305.617188 492.113281 C 311.347656 494.363281 317.382812 495.488281 323.316406 495.488281 C 330.070312 495.488281 336.820312 494.058594 343.164062 491.296875 C 348.484375 488.941406 353.292969 485.667969 357.382812 481.78125 C 359.429688 490.476562 363.929688 498.457031 370.375 504.902344 L 379.992188 514.519531 C 378.867188 517.585938 375.796875 519.835938 372.320312 519.835938 L 257.84375 519.835938 C 253.34375 519.835938 249.660156 523.519531 249.660156 528.019531 L 249.660156 536.207031 C 249.660156 558.8125 267.972656 577.125 290.582031 577.125 L 347.871094 577.125 L 347.871094 650.78125 L 364.238281 650.78125 L 364.238281 568.941406 C 364.238281 564.441406 360.554688 560.757812 356.054688 560.757812 L 290.582031 560.757812 C 277.078125 560.757812 266.027344 549.710938 266.027344 536.207031 L 372.421875 536.207031 C 385.925781 536.207031 396.972656 525.15625 396.972656 511.652344 C 396.972656 509.503906 396.15625 507.355469 394.621094 505.820312 L 382.039062 493.238281 C 375.898438 487.101562 372.421875 478.816406 372.421875 470.117188 L 372.421875 437.792969 L 437.894531 437.792969 L 437.894531 469.914062 C 437.894531 478.609375 434.519531 486.894531 428.277344 493.035156 L 415.695312 505.617188 C 414.160156 507.152344 413.34375 509.199219 413.34375 511.449219 C 413.34375 524.953125 424.390625 536 437.894531 536 L 544.289062 536 C 544.289062 549.503906 533.238281 560.554688 519.734375 560.554688 L 454.261719 560.554688 C 449.761719 560.554688 446.078125 564.234375 446.078125 568.738281 L 446.078125 650.578125 L 462.445312 650.578125 L 462.445312 576.921875 L 519.734375 576.921875 C 542.34375 576.921875 560.65625 558.609375 560.65625 536 L 560.65625 527.816406 C 560.65625 523.316406 556.972656 519.632812 552.472656 519.632812 Z M 353.804688 457.945312 C 350.632812 466.128906 344.492188 472.574219 336.515625 476.050781 C 328.535156 479.632812 319.632812 479.835938 311.449219 476.667969 C 305.925781 474.519531 301.117188 471.039062 297.539062 466.4375 L 355.542969 440.757812 C 356.566406 446.488281 355.949219 452.421875 353.804688 457.945312 Z M 353.804688 457.945312 " fill-opacity="1" fill-rule="nonzero"/></g></svg>