<svg xmlns="http://www.w3.org/2000/svg" xmlns:xlink="http://www.w3.org/1999/xlink" width="1080" zoomAndPan="magnify" viewBox="0 0 810 809.999993" height="1080" preserveAspectRatio="xMidYMid meet" version="1.0"><defs><clipPath id="e93c7c0c93"><path d="M 293 293 L 651 293 L 651 650.960938 L 293 650.960938 Z M 293 293 " clip-rule="nonzero"/></clipPath></defs><rect x="-81" width="972" fill="#ffffff" y="-80.999999" height="971.999992" fill-opacity="1"/><rect x="-81" width="972" fill="#ffffff" y="-80.999999" height="971.999992" fill-opacity="1"/><g clip-path="url(#e93c7c0c93)"><path fill="#000000" d="M 630.117188 455.785156 C 627.007812 456.351562 623.894531 455.667969 621.3125 453.878906 C 618.726562 452.085938 616.992188 449.394531 616.429688 446.296875 C 615.269531 439.910156 619.523438 433.769531 625.914062 432.609375 C 626.621094 432.476562 627.328125 432.417969 628.023438 432.417969 C 633.601562 432.417969 638.574219 436.414062 639.609375 442.089844 C 640.765625 448.488281 636.507812 454.625 630.117188 455.785156 Z M 543.332031 521.90625 C 530.132812 540.957031 510.304688 553.722656 487.5 557.863281 C 440.445312 566.398438 395.1875 535.054688 386.644531 487.976562 C 382.511719 465.175781 387.5 442.125 400.699219 423.078125 C 413.902344 404.03125 433.730469 391.261719 456.53125 387.125 C 461.761719 386.179688 466.996094 385.710938 472.199219 385.710938 C 489.6875 385.710938 506.75 391.007812 521.433594 401.179688 C 540.480469 414.378906 553.246094 434.207031 557.386719 457.011719 C 561.523438 479.8125 556.527344 502.859375 543.332031 521.90625 Z M 600.230469 551.203125 C 600.941406 551.074219 601.652344 551.011719 602.359375 551.011719 C 604.734375 551.011719 607.046875 551.734375 609.039062 553.113281 C 611.625 554.90625 613.359375 557.597656 613.921875 560.691406 C 614.480469 563.789062 613.804688 566.917969 612.015625 569.5 C 610.222656 572.085938 607.53125 573.824219 604.4375 574.386719 C 601.351562 574.945312 598.210938 574.269531 595.625 572.476562 C 590.289062 568.777344 588.953125 561.425781 592.652344 556.085938 C 594.445312 553.5 597.136719 551.769531 600.230469 551.203125 Z M 511.902344 626.390625 C 513.058594 632.785156 508.804688 638.925781 502.414062 640.082031 C 499.324219 640.652344 496.191406 639.96875 493.601562 638.179688 C 491.019531 636.382812 489.285156 633.691406 488.722656 630.597656 C 487.566406 624.210938 491.824219 618.066406 498.210938 616.90625 C 504.59375 615.734375 510.742188 620.003906 511.902344 626.390625 Z M 318.117188 512.378906 C 315.027344 512.941406 311.894531 512.269531 309.304688 510.472656 C 306.71875 508.683594 304.988281 505.992188 304.421875 502.898438 C 303.863281 499.800781 304.542969 496.667969 306.332031 494.082031 C 308.125 491.496094 310.816406 489.765625 313.910156 489.203125 L 313.914062 489.203125 C 314.625 489.074219 315.332031 489.011719 316.042969 489.011719 C 318.414062 489.011719 320.726562 489.726562 322.71875 491.109375 C 325.304688 492.902344 327.039062 495.59375 327.601562 498.691406 C 328.757812 505.078125 324.507812 511.222656 318.117188 512.378906 Z M 343.800781 393.78125 C 340.714844 394.347656 337.578125 393.667969 334.992188 391.878906 C 332.40625 390.082031 330.667969 387.390625 330.105469 384.296875 C 329.550781 381.203125 330.226562 378.070312 332.011719 375.488281 C 333.808594 372.902344 336.5 371.164062 339.59375 370.605469 C 340.304688 370.472656 341.015625 370.410156 341.722656 370.410156 C 344.09375 370.410156 346.410156 371.128906 348.40625 372.507812 C 350.992188 374.304688 352.722656 376.996094 353.285156 380.089844 C 353.847656 383.1875 353.167969 386.320312 351.378906 388.902344 C 349.585938 391.488281 346.894531 393.222656 343.800781 393.78125 Z M 432.132812 318.597656 C 431.570312 315.5 432.246094 312.371094 434.039062 309.785156 C 435.828125 307.199219 438.519531 305.46875 441.617188 304.902344 C 442.324219 304.777344 443.027344 304.714844 443.726562 304.714844 C 449.304688 304.714844 454.277344 308.710938 455.308594 314.390625 C 456.464844 320.78125 452.210938 326.921875 445.820312 328.082031 C 445.820312 328.082031 445.820312 328.082031 445.816406 328.082031 C 439.433594 329.242188 433.285156 324.984375 432.132812 318.597656 Z M 552.636719 335.460938 C 554.429688 332.878906 557.121094 331.148438 560.210938 330.585938 C 560.921875 330.457031 561.632812 330.394531 562.34375 330.394531 C 564.714844 330.394531 567.027344 331.109375 569.019531 332.492188 C 571.605469 334.285156 573.34375 336.976562 573.90625 340.070312 C 574.460938 343.171875 573.785156 346.300781 572 348.882812 C 572 348.886719 572 348.886719 571.992188 348.886719 C 570.203125 351.472656 567.511719 353.203125 564.421875 353.761719 C 561.328125 354.328125 558.199219 353.648438 555.609375 351.859375 C 550.273438 348.15625 548.9375 340.804688 552.636719 335.460938 Z M 391.394531 609.519531 C 389.601562 612.105469 386.910156 613.839844 383.816406 614.402344 C 380.730469 614.964844 377.59375 614.289062 375.011719 612.5 C 372.425781 610.703125 370.6875 608.011719 370.128906 604.917969 C 369.566406 601.820312 370.242188 598.691406 372.03125 596.105469 C 373.824219 593.519531 376.515625 591.789062 379.613281 591.226562 C 380.324219 591.09375 381.03125 591.03125 381.738281 591.03125 C 384.113281 591.03125 386.425781 591.753906 388.421875 593.132812 C 393.761719 596.832031 395.09375 604.183594 391.394531 609.519531 Z M 650.199219 440.171875 C 647.980469 427.941406 636.21875 419.792969 623.992188 422.015625 C 613.589844 423.902344 606.167969 432.695312 605.542969 442.800781 L 566.863281 449.820312 C 561.707031 428.152344 549.492188 409.183594 531.894531 395.523438 L 554.269531 363.234375 C 556.820312 364.210938 559.523438 364.726562 562.265625 364.726562 C 563.621094 364.726562 564.984375 364.605469 566.34375 364.355469 C 572.261719 363.277344 577.414062 359.960938 580.84375 355.011719 C 584.273438 350.066406 585.570312 344.078125 584.496094 338.148438 C 583.421875 332.230469 580.105469 327.074219 575.152344 323.640625 C 564.933594 316.566406 550.863281 319.117188 543.785156 329.335938 C 537.765625 338.023438 538.734375 349.492188 545.4375 357.082031 L 523.050781 389.398438 C 504.082031 377.714844 482.03125 372.933594 459.933594 375.726562 L 452.914062 337.046875 C 462.15625 332.910156 467.78125 322.871094 465.898438 312.472656 L 465.898438 312.46875 C 463.679688 300.242188 451.921875 292.09375 439.699219 294.3125 C 433.773438 295.382812 428.621094 298.707031 425.191406 303.65625 C 421.757812 308.605469 420.464844 314.59375 421.539062 320.515625 C 423.421875 330.917969 432.210938 338.347656 442.324219 338.976562 L 449.34375 377.652344 C 427.675781 382.800781 408.703125 395.019531 395.046875 412.613281 L 362.738281 390.230469 C 364.203125 386.417969 364.625 382.285156 363.878906 378.167969 C 362.804688 372.246094 359.484375 367.09375 354.535156 363.667969 C 349.589844 360.238281 343.609375 358.933594 337.671875 360.011719 C 331.75 361.089844 326.597656 364.402344 323.171875 369.351562 C 319.738281 374.304688 318.4375 380.292969 319.515625 386.21875 C 320.589844 392.144531 323.90625 397.292969 328.855469 400.722656 C 332.671875 403.367188 337.101562 404.746094 341.652344 404.746094 C 343 404.746094 344.359375 404.625 345.722656 404.375 C 349.835938 403.632812 353.558594 401.78125 356.609375 399.074219 L 388.917969 421.460938 C 377.234375 440.425781 372.460938 462.476562 375.25 484.578125 L 336.574219 491.59375 C 334.917969 487.867188 332.289062 484.640625 328.851562 482.261719 C 323.90625 478.832031 317.925781 477.535156 311.992188 478.613281 C 306.066406 479.683594 300.917969 483.003906 297.484375 487.953125 C 294.058594 492.902344 292.757812 498.890625 293.832031 504.820312 C 294.90625 510.742188 298.226562 515.894531 303.175781 519.320312 C 306.988281 521.96875 311.421875 523.34375 315.960938 523.34375 C 317.316406 523.34375 318.679688 523.21875 320.039062 522.972656 C 330.441406 521.082031 337.863281 512.289062 338.488281 502.1875 L 377.175781 495.167969 C 382.484375 517.421875 395.1875 536.222656 412.167969 549.417969 L 389.75 581.773438 C 385.933594 580.308594 381.796875 579.882812 377.691406 580.632812 C 371.769531 581.707031 366.617188 585.027344 363.191406 589.972656 C 359.757812 594.925781 358.460938 600.910156 359.535156 606.839844 C 360.609375 612.761719 363.925781 617.914062 368.878906 621.347656 C 372.691406 623.988281 377.121094 625.363281 381.667969 625.363281 C 383.015625 625.363281 384.378906 625.238281 385.742188 624.992188 C 391.664062 623.917969 396.8125 620.597656 400.242188 615.652344 C 406.261719 606.960938 405.296875 595.496094 398.59375 587.902344 L 421.015625 555.546875 C 436.050781 564.796875 453.609375 570.03125 471.972656 570.03125 C 475.980469 570.03125 480.027344 569.761719 484.097656 569.253906 L 491.113281 607.941406 C 481.871094 612.078125 476.246094 622.117188 478.132812 632.519531 L 478.132812 632.523438 C 479.207031 638.445312 482.523438 643.59375 487.476562 647.027344 C 491.289062 649.667969 495.71875 651.046875 500.261719 651.046875 C 501.617188 651.046875 502.976562 650.925781 504.339844 650.675781 C 516.566406 648.457031 524.710938 636.703125 522.496094 624.46875 C 520.609375 614.066406 511.820312 606.644531 501.707031 606.019531 L 494.691406 567.339844 C 516.359375 562.1875 535.328125 549.96875 548.984375 532.375 L 581.296875 554.761719 C 577.6875 564.226562 580.804688 575.304688 589.492188 581.320312 C 593.308594 583.96875 597.738281 585.347656 602.289062 585.347656 C 603.636719 585.347656 605 585.222656 606.359375 584.976562 C 612.28125 583.902344 617.433594 580.585938 620.859375 575.636719 C 624.292969 570.683594 625.59375 564.699219 624.515625 558.769531 C 623.4375 552.847656 620.125 547.699219 615.175781 544.265625 C 610.226562 540.839844 604.25 539.539062 598.308594 540.613281 C 594.195312 541.359375 590.472656 543.207031 587.417969 545.914062 L 555.113281 523.527344 C 566.792969 504.5625 571.570312 482.511719 568.78125 460.414062 L 607.457031 453.398438 C 609.117188 457.121094 611.742188 460.34375 615.179688 462.726562 C 618.988281 465.371094 623.425781 466.746094 627.96875 466.746094 C 629.316406 466.746094 630.683594 466.625 632.042969 466.378906 C 644.265625 464.160156 652.414062 452.402344 650.199219 440.171875 " fill-opacity="1" fill-rule="nonzero"/></g><path fill="#000000" d="M 446.042969 507.230469 L 433.085938 497.300781 C 432.464844 496.824219 432.320312 496.183594 432.292969 495.847656 C 432.261719 495.511719 432.292969 494.863281 432.820312 494.285156 L 436.695312 490.058594 C 439.601562 486.882812 440.722656 482.496094 439.6875 478.328125 C 438.65625 474.148438 435.621094 470.785156 431.382812 469.265625 C 430.582031 468.972656 430.257812 468.351562 430.136719 468.003906 C 430.015625 467.65625 429.882812 466.96875 430.335938 466.246094 L 438.808594 452.675781 C 440.382812 450.15625 439.617188 446.835938 437.097656 445.261719 C 434.582031 443.683594 431.253906 444.453125 429.679688 446.972656 L 421.203125 460.539062 C 419.144531 463.84375 418.6875 467.851562 419.960938 471.53125 C 421.242188 475.214844 424.074219 478.078125 427.941406 479.46875 C 428.839844 479.792969 429.136719 480.507812 429.238281 480.910156 C 429.335938 481.308594 429.402344 482.082031 428.761719 482.789062 L 424.886719 487.011719 C 422.464844 489.65625 421.253906 493.214844 421.566406 496.785156 C 421.878906 500.359375 423.691406 503.660156 426.535156 505.84375 L 439.496094 515.773438 C 440.472656 516.527344 441.625 516.886719 442.765625 516.886719 C 444.382812 516.886719 445.980469 516.160156 447.039062 514.78125 C 448.851562 512.417969 448.40625 509.039062 446.042969 507.230469 " fill-opacity="1" fill-rule="nonzero"/><path fill="#000000" d="M 456.308594 441.070312 L 465.484375 436.433594 C 467.621094 435.359375 470.261719 436.195312 471.382812 438.300781 L 475.621094 446.21875 C 477.703125 450.109375 481.367188 452.898438 485.667969 453.875 C 489.972656 454.847656 494.476562 453.90625 498.207031 451.15625 C 499.21875 450.414062 500.453125 450.136719 501.683594 450.378906 C 502.914062 450.625 503.953125 451.34375 504.613281 452.414062 L 508.371094 458.546875 C 509.382812 460.207031 511.148438 461.121094 512.960938 461.121094 C 513.921875 461.121094 514.894531 460.863281 515.773438 460.324219 C 518.304688 458.773438 519.097656 455.460938 517.546875 452.921875 L 513.792969 446.792969 C 511.574219 443.171875 507.917969 440.632812 503.753906 439.816406 C 499.585938 438.996094 495.242188 439.972656 491.648438 442.621094 C 490.230469 443.660156 488.785156 443.542969 488.042969 443.375 C 487.308594 443.207031 485.945312 442.695312 485.113281 441.140625 L 480.878906 433.222656 C 477.015625 426.011719 467.9375 423.128906 460.628906 426.828125 L 451.453125 431.460938 C 448.800781 432.796875 447.738281 436.035156 449.078125 438.6875 C 450.410156 441.34375 453.644531 442.40625 456.308594 441.070312 " fill-opacity="1" fill-rule="nonzero"/><path fill="#000000" d="M 534.398438 470.605469 L 517.867188 468.835938 C 513.46875 468.351562 509.054688 469.785156 505.769531 472.742188 C 502.480469 475.699219 500.589844 479.933594 500.589844 484.605469 C 500.589844 486.105469 499.910156 487.5 498.722656 488.421875 C 497.539062 489.347656 496.027344 489.667969 494.5625 489.300781 L 492.503906 488.78125 C 488.378906 487.746094 483.949219 488.453125 480.351562 490.726562 C 476.707031 493.03125 474.230469 496.632812 473.382812 500.867188 L 470.179688 516.898438 C 469.59375 519.8125 471.488281 522.652344 474.402344 523.234375 C 474.757812 523.304688 475.113281 523.335938 475.460938 523.335938 C 477.976562 523.335938 480.226562 521.566406 480.734375 519.011719 L 483.9375 502.972656 C 484.203125 501.65625 484.972656 500.542969 486.105469 499.828125 C 487.238281 499.113281 488.574219 498.890625 489.875 499.222656 L 491.929688 499.738281 C 496.644531 500.929688 501.519531 499.894531 505.339844 496.917969 C 509.164062 493.941406 511.355469 489.449219 511.355469 484.355469 C 511.355469 482.960938 511.929688 481.683594 512.960938 480.75 C 514 479.820312 515.363281 479.398438 516.71875 479.539062 L 533.253906 481.308594 C 536.222656 481.652344 538.867188 479.488281 539.175781 476.53125 C 539.496094 473.574219 537.355469 470.921875 534.398438 470.605469 " fill-opacity="1" fill-rule="nonzero"/><path fill="#000000" d="M 433.085938 426.832031 C 443.476562 426.832031 443.496094 410.683594 433.085938 410.683594 C 422.695312 410.683594 422.679688 426.832031 433.085938 426.832031 " fill-opacity="1" fill-rule="nonzero"/><path fill="#000000" d="M 464.917969 458.933594 C 454.527344 458.933594 454.511719 475.078125 464.917969 475.078125 C 475.308594 475.078125 475.328125 458.933594 464.917969 458.933594 " fill-opacity="1" fill-rule="nonzero"/><path fill="#000000" d="M 456.46875 523.589844 C 446.078125 523.589844 446.054688 539.738281 456.46875 539.738281 C 466.855469 539.738281 466.871094 523.589844 456.46875 523.589844 " fill-opacity="1" fill-rule="nonzero"/><path fill="#000000" d="M 518.144531 514.140625 C 507.753906 514.140625 507.734375 530.289062 518.144531 530.289062 C 528.535156 530.289062 528.550781 514.140625 518.144531 514.140625 " fill-opacity="1" fill-rule="nonzero"/><path fill="#000000" d="M 491.949219 418.871094 C 502.335938 418.871094 502.359375 402.722656 491.949219 402.722656 C 481.558594 402.722656 481.542969 418.871094 491.949219 418.871094 " fill-opacity="1" fill-rule="nonzero"/><path fill="#000000" d="M 409.8125 473.730469 C 409.269531 473.308594 408.722656 472.890625 408.179688 472.46875 C 406.917969 471.738281 405.558594 471.367188 404.105469 471.367188 C 403.9375 471.367188 403.773438 471.367188 403.605469 471.367188 C 402.496094 471.320312 401.457031 471.554688 400.496094 472.0625 C 399.496094 472.382812 398.628906 472.945312 397.898438 473.730469 C 397.109375 474.460938 396.554688 475.328125 396.230469 476.328125 C 395.726562 477.289062 395.488281 478.328125 395.53125 479.441406 C 395.628906 480.15625 395.726562 480.871094 395.820312 481.585938 C 396.203125 482.953125 396.898438 484.140625 397.898438 485.148438 C 398.441406 485.566406 398.988281 485.988281 399.53125 486.410156 C 400.792969 487.140625 402.148438 487.511719 403.605469 487.515625 C 403.773438 487.515625 403.9375 487.515625 404.105469 487.515625 C 405.214844 487.554688 406.253906 487.324219 407.21875 486.816406 C 408.21875 486.492188 409.078125 485.9375 409.8125 485.148438 C 410.601562 484.414062 411.15625 483.550781 411.484375 482.546875 C 411.988281 481.589844 412.222656 480.550781 412.179688 479.441406 C 412.082031 478.722656 411.984375 478.007812 411.890625 477.292969 C 411.507812 475.925781 410.816406 474.734375 409.8125 473.730469 " fill-opacity="1" fill-rule="nonzero"/><path fill="#000000" d="M 542.515625 447.988281 C 532.125 447.988281 532.109375 464.132812 542.515625 464.132812 C 552.90625 464.132812 552.921875 447.988281 542.515625 447.988281 " fill-opacity="1" fill-rule="nonzero"/><path fill="#000000" d="M 288.703125 371.699219 C 287.886719 372.804688 286.683594 373.523438 285.320312 373.726562 C 282.5 374.160156 279.882812 372.195312 279.464844 369.386719 C 279.050781 366.574219 280.996094 363.949219 283.804688 363.53125 C 286.613281 363.113281 289.246094 365.0625 289.664062 367.875 C 289.863281 369.234375 289.523438 370.59375 288.703125 371.699219 Z M 271.101562 323.542969 C 259.746094 323.910156 248.886719 320.222656 240.066406 313.742188 C 239.964844 313.65625 239.875 313.554688 239.765625 313.472656 C 239.660156 313.394531 239.542969 313.34375 239.4375 313.277344 C 230.710938 306.664062 224.058594 297.296875 221.011719 286.417969 C 216.667969 270.910156 219.628906 254.664062 229.117188 241.855469 C 238.613281 229.046875 253.289062 221.496094 269.390625 221.144531 C 269.753906 221.128906 270.113281 221.125 270.472656 221.125 C 292.914062 221.125 313.414062 236.597656 319.480469 258.265625 C 323.824219 273.769531 320.871094 290.015625 311.375 302.824219 C 301.882812 315.632812 287.203125 323.183594 271.101562 323.542969 Z M 188.96875 218.523438 C 186.683594 216.828125 186.207031 213.59375 187.894531 211.308594 C 188.714844 210.207031 189.914062 209.480469 191.28125 209.28125 C 191.535156 209.242188 191.792969 209.222656 192.046875 209.222656 C 193.144531 209.222656 194.207031 209.570312 195.105469 210.234375 C 195.105469 210.234375 195.109375 210.234375 195.109375 210.238281 C 196.214844 211.058594 196.933594 212.257812 197.136719 213.621094 C 197.335938 214.980469 196.996094 216.339844 196.179688 217.445312 C 194.484375 219.730469 191.25 220.203125 188.96875 218.523438 Z M 351.523438 326.164062 C 352.636719 326.980469 353.355469 328.183594 353.554688 329.542969 C 353.757812 330.910156 353.417969 332.265625 352.597656 333.371094 C 351.777344 334.476562 350.578125 335.199219 349.214844 335.402344 C 347.851562 335.59375 346.496094 335.265625 345.386719 334.441406 C 344.28125 333.625 343.558594 332.421875 343.359375 331.0625 C 343.15625 329.699219 343.496094 328.339844 344.3125 327.238281 C 345.328125 325.871094 346.882812 325.152344 348.464844 325.152344 C 349.527344 325.152344 350.605469 325.480469 351.523438 326.164062 Z M 216.429688 353.621094 C 214.738281 355.902344 211.503906 356.386719 209.214844 354.691406 C 208.109375 353.871094 207.390625 352.675781 207.183594 351.3125 C 206.984375 349.945312 207.328125 348.585938 208.144531 347.480469 C 208.964844 346.375 210.164062 345.65625 211.523438 345.453125 C 211.78125 345.414062 212.042969 345.398438 212.292969 345.398438 C 213.390625 345.398438 214.457031 345.742188 215.355469 346.414062 C 216.460938 347.226562 217.179688 348.429688 217.382812 349.792969 C 217.585938 351.15625 217.242188 352.515625 216.429688 353.621094 Z M 174.71875 291.753906 C 173.359375 291.964844 171.996094 291.617188 170.886719 290.800781 C 169.785156 289.980469 169.066406 288.777344 168.859375 287.414062 C 168.65625 286.050781 169 284.695312 169.820312 283.589844 C 170.636719 282.484375 171.839844 281.761719 173.203125 281.5625 C 173.460938 281.523438 173.710938 281.503906 173.964844 281.503906 C 176.472656 281.503906 178.679688 283.34375 179.058594 285.902344 C 179.472656 288.710938 177.527344 291.339844 174.71875 291.753906 Z M 251.789062 172.984375 C 252.609375 171.878906 253.8125 171.15625 255.171875 170.953125 C 255.429688 170.917969 255.683594 170.894531 255.933594 170.894531 C 258.445312 170.894531 260.648438 172.742188 261.027344 175.292969 C 261.230469 176.652344 260.886719 178.015625 260.066406 179.121094 C 259.253906 180.226562 258.050781 180.945312 256.6875 181.148438 C 253.886719 181.601562 251.25 179.617188 250.832031 176.808594 C 250.632812 175.449219 250.96875 174.085938 251.789062 172.984375 Z M 324.066406 191.0625 C 324.886719 189.953125 326.09375 189.234375 327.449219 189.03125 C 327.710938 188.996094 327.964844 188.972656 328.21875 188.972656 C 329.316406 188.972656 330.382812 189.324219 331.277344 189.992188 C 332.382812 190.808594 333.105469 192.011719 333.308594 193.371094 C 333.511719 194.734375 333.167969 196.09375 332.351562 197.203125 C 330.65625 199.476562 327.417969 199.960938 325.140625 198.277344 C 322.859375 196.582031 322.375 193.347656 324.066406 191.0625 Z M 365.78125 252.925781 C 366.03125 252.886719 366.289062 252.871094 366.546875 252.871094 C 367.644531 252.871094 368.707031 253.21875 369.601562 253.882812 C 370.707031 254.703125 371.433594 255.902344 371.628906 257.269531 C 372.050781 260.078125 370.101562 262.703125 367.292969 263.121094 C 365.9375 263.332031 364.574219 262.984375 363.46875 262.164062 C 362.363281 261.34375 361.640625 260.144531 361.441406 258.777344 C 361.023438 255.96875 362.96875 253.34375 365.78125 252.925781 Z M 297.355469 378.105469 C 299.886719 374.691406 300.9375 370.492188 300.3125 366.285156 C 299.296875 359.472656 294.082031 354.335938 287.6875 353.039062 L 284.648438 332.582031 C 297.019531 329.636719 308.128906 323.007812 316.613281 313.402344 L 333.222656 325.714844 C 332.554688 327.929688 332.363281 330.285156 332.710938 332.644531 C 333.335938 336.851562 335.5625 340.5625 338.976562 343.09375 C 341.746094 345.148438 345.035156 346.222656 348.421875 346.222656 C 349.210938 346.222656 350.003906 346.167969 350.796875 346.046875 C 355.007812 345.425781 358.714844 343.195312 361.246094 339.78125 C 363.777344 336.363281 364.828125 332.164062 364.203125 327.960938 C 363.578125 323.75 361.351562 320.046875 357.933594 317.511719 C 352.398438 313.417969 345.074219 313.46875 339.640625 317.074219 L 323.023438 304.757812 C 329.742188 293.839844 332.859375 281.285156 332.070312 268.589844 L 352.523438 265.546875 C 353.613281 267.59375 355.140625 269.390625 357.058594 270.8125 C 359.828125 272.867188 363.113281 273.945312 366.503906 273.945312 C 367.292969 273.945312 368.085938 273.886719 368.878906 273.769531 C 377.558594 272.480469 383.570312 264.363281 382.28125 255.683594 C 381.65625 251.476562 379.429688 247.765625 376.015625 245.234375 C 372.601562 242.707031 368.414062 241.660156 364.191406 242.277344 C 357.382812 243.289062 352.230469 248.507812 350.945312 254.902344 L 330.492188 257.941406 C 330.289062 257.078125 330.085938 256.21875 329.847656 255.363281 C 326.613281 243.808594 319.988281 233.710938 311.269531 226.023438 L 323.617188 209.367188 C 325.085938 209.8125 326.617188 210.054688 328.175781 210.054688 C 328.964844 210.054688 329.757812 209.996094 330.550781 209.878906 C 334.757812 209.25 338.46875 207.027344 341 203.609375 C 343.53125 200.191406 344.578125 195.996094 343.957031 191.792969 C 343.328125 187.582031 341.105469 183.871094 337.691406 181.339844 C 330.636719 176.117188 320.65625 177.601562 315.421875 184.652344 C 311.320312 190.183594 311.367188 197.519531 314.972656 202.949219 L 302.625 219.617188 C 292.730469 213.511719 281.144531 210.105469 269.152344 210.378906 C 268.261719 210.398438 267.382812 210.457031 266.492188 210.511719 L 263.453125 190.066406 C 265.496094 188.96875 267.296875 187.449219 268.722656 185.53125 C 271.25 182.109375 272.300781 177.914062 271.679688 173.710938 C 270.386719 165.03125 262.277344 159.003906 253.589844 160.308594 C 249.382812 160.929688 245.675781 163.160156 243.136719 166.578125 C 240.605469 169.992188 239.558594 174.1875 240.183594 178.398438 C 241.195312 185.207031 246.414062 190.367188 252.804688 191.652344 L 255.847656 212.097656 C 243.476562 215.042969 232.363281 221.671875 223.878906 231.277344 L 207.269531 218.96875 C 207.9375 216.753906 208.136719 214.398438 207.78125 212.039062 C 207.15625 207.832031 204.929688 204.121094 201.515625 201.589844 C 198.101562 199.058594 193.902344 198.019531 189.695312 198.632812 C 185.488281 199.257812 181.777344 201.484375 179.25 204.898438 C 174.023438 211.949219 175.507812 221.941406 182.558594 227.171875 C 185.402344 229.273438 188.722656 230.289062 192.015625 230.289062 C 195.132812 230.289062 198.21875 229.371094 200.859375 227.613281 L 217.46875 239.921875 C 210.75 250.839844 207.636719 263.398438 208.421875 276.089844 L 187.964844 279.136719 C 184.859375 273.398438 178.402344 269.917969 171.617188 270.910156 C 167.414062 271.535156 163.699219 273.765625 161.167969 277.179688 C 158.636719 280.597656 157.585938 284.792969 158.210938 288.996094 C 158.839844 293.207031 161.0625 296.914062 164.480469 299.445312 C 167.253906 301.503906 170.539062 302.578125 173.929688 302.578125 C 174.714844 302.578125 175.507812 302.519531 176.304688 302.40625 C 183.109375 301.394531 188.261719 296.175781 189.546875 289.78125 L 210.003906 286.742188 C 210.203125 287.601562 210.40625 288.460938 210.644531 289.320312 C 213.878906 300.875 220.507812 310.972656 229.222656 318.660156 L 216.878906 335.320312 C 214.652344 334.648438 212.296875 334.449219 209.945312 334.804688 C 205.734375 335.429688 202.023438 337.65625 199.492188 341.070312 C 196.960938 344.492188 195.914062 348.6875 196.542969 352.894531 C 197.164062 357.101562 199.394531 360.804688 202.808594 363.34375 C 205.648438 365.449219 208.972656 366.460938 212.265625 366.460938 C 217.136719 366.460938 221.953125 364.238281 225.078125 360.027344 C 227.605469 356.609375 228.65625 352.414062 228.03125 348.207031 C 227.679688 345.847656 226.804688 343.652344 225.523438 341.726562 L 237.875 325.058594 C 247.402344 330.941406 258.5 334.320312 270.03125 334.320312 C 270.46875 334.320312 270.910156 334.316406 271.347656 334.300781 C 272.234375 334.285156 273.117188 334.226562 274 334.167969 L 277.039062 354.621094 C 271.300781 357.710938 267.804688 364.15625 268.816406 370.96875 C 269.992188 378.863281 276.804688 384.546875 284.554688 384.546875 C 285.328125 384.546875 286.113281 384.492188 286.90625 384.375 C 291.109375 383.75 294.820312 381.523438 297.355469 378.105469 " fill-opacity="1" fill-rule="nonzero"/><path fill="#000000" d="M 254.199219 294.269531 L 248.53125 290.496094 C 247.417969 289.757812 247.25 288.6875 247.25 288.117188 C 247.25 287.65625 247.378906 286.5 248.730469 285.59375 C 252.453125 283.117188 254.722656 278.972656 254.804688 274.5 C 254.882812 270.027344 252.765625 265.800781 249.136719 263.195312 L 246.121094 261.023438 C 245.195312 260.355469 244.984375 259.4375 244.941406 258.949219 C 244.902344 258.46875 244.941406 257.523438 245.742188 256.707031 L 254.40625 247.757812 C 256.476562 245.621094 256.421875 242.214844 254.285156 240.144531 C 252.152344 238.082031 248.75 238.128906 246.675781 240.265625 L 238.007812 249.210938 C 235.25 252.0625 233.867188 255.957031 234.21875 259.910156 C 234.570312 263.855469 236.617188 267.449219 239.832031 269.757812 L 242.847656 271.9375 C 243.914062 272.691406 244.050781 273.75 244.042969 274.304688 C 244.03125 274.863281 243.851562 275.914062 242.558594 276.777344 C 238.757812 279.308594 236.484375 283.550781 236.484375 288.121094 C 236.492188 292.6875 238.761719 296.925781 242.566406 299.457031 L 248.230469 303.234375 C 249.148438 303.839844 250.183594 304.132812 251.207031 304.132812 C 252.949219 304.132812 254.65625 303.292969 255.695312 301.734375 C 257.34375 299.261719 256.671875 295.917969 254.199219 294.269531 " fill-opacity="1" fill-rule="nonzero"/><path fill="#000000" d="M 310.402344 268.9375 L 310.011719 266.292969 C 309.585938 263.347656 306.863281 261.328125 303.90625 261.75 C 300.96875 262.179688 298.933594 264.914062 299.363281 267.855469 L 299.757812 270.503906 C 300.402344 274.96875 297.304688 279.132812 292.597656 279.820312 C 284.238281 281.039062 277.640625 287.75 276.554688 296.125 L 275.457031 304.570312 C 275.078125 307.519531 277.15625 310.21875 280.101562 310.601562 C 280.339844 310.636719 280.574219 310.648438 280.804688 310.648438 C 283.464844 310.648438 285.78125 308.671875 286.136719 305.960938 L 287.230469 297.511719 C 287.699219 293.894531 290.550781 290.996094 294.398438 290.433594 C 304.734375 288.921875 311.914062 279.28125 310.402344 268.9375 " fill-opacity="1" fill-rule="nonzero"/><path fill="#000000" d="M 289.09375 253.160156 C 299.476562 253.160156 299.496094 237.011719 289.09375 237.011719 C 278.695312 237.011719 278.683594 253.160156 289.09375 253.160156 " fill-opacity="1" fill-rule="nonzero"/><path fill="#000000" d="M 269.894531 261.074219 C 259.503906 261.074219 259.488281 277.222656 269.894531 277.222656 C 280.285156 277.222656 280.304688 261.074219 269.894531 261.074219 " fill-opacity="1" fill-rule="nonzero"/></svg>