<svg xmlns="http://www.w3.org/2000/svg" xmlns:xlink="http://www.w3.org/1999/xlink" width="1080" zoomAndPan="magnify" viewBox="0 0 810 809.999993" height="1080" preserveAspectRatio="xMidYMid meet" version="1.0"><defs><clipPath id="9c3a9fd722"><path d="M 189.699219 158.941406 L 620.199219 158.941406 L 620.199219 650.941406 L 189.699219 650.941406 Z M 189.699219 158.941406 " clip-rule="nonzero"/></clipPath></defs><rect x="-81" width="972" fill="#ffffff" y="-80.999999" height="971.999992" fill-opacity="1"/><rect x="-81" width="972" fill="#ffffff" y="-80.999999" height="971.999992" fill-opacity="1"/><g clip-path="url(#9c3a9fd722)"><path fill="#000000" d="M 451.742188 202.183594 L 358.246094 202.183594 C 356.359375 202.183594 354.511719 202.738281 352.9375 203.785156 C 316.628906 227.859375 278.875 244.386719 240.722656 252.898438 C 236.328125 253.878906 233.207031 257.777344 233.207031 262.277344 L 233.207031 404.675781 C 233.207031 445.417969 252.714844 489.386719 288.136719 528.484375 C 319.9375 563.582031 361.410156 591.570312 401.917969 605.269531 C 402.914062 605.605469 403.957031 605.777344 404.996094 605.777344 C 406.035156 605.777344 407.078125 605.605469 408.074219 605.269531 C 448.582031 591.570312 490.054688 563.582031 521.855469 528.484375 C 557.277344 489.386719 576.785156 445.417969 576.785156 404.675781 L 576.785156 262.277344 C 576.785156 257.777344 573.664062 253.878906 569.269531 252.898438 C 531.117188 244.386719 493.363281 227.859375 457.054688 203.785156 C 455.480469 202.738281 453.632812 202.183594 451.742188 202.183594 Z M 557.566406 404.675781 C 557.566406 440.640625 539.824219 480.027344 507.613281 515.578125 C 479.1875 546.949219 441.050781 573.082031 404.996094 585.992188 C 368.941406 573.082031 330.804688 546.949219 302.378906 515.578125 C 270.164062 480.027344 252.425781 440.640625 252.425781 404.675781 L 252.425781 269.878906 C 289.453125 260.648438 325.972656 244.363281 361.125 221.402344 L 448.867188 221.402344 C 484.019531 244.363281 520.539062 260.648438 557.566406 269.878906 Z M 611.183594 215.621094 C 552.105469 210.921875 502.210938 183.175781 470.757812 160.726562 C 469.128906 159.566406 467.175781 158.941406 465.175781 158.941406 L 344.816406 158.941406 C 342.8125 158.941406 340.863281 159.566406 339.234375 160.726562 C 307.78125 183.175781 257.886719 210.921875 198.8125 215.621094 C 193.816406 216.015625 189.964844 220.1875 189.964844 225.199219 L 189.964844 404.675781 C 189.964844 433.644531 196.925781 462.808594 210.65625 491.363281 C 222.957031 516.945312 240.378906 541.480469 262.433594 564.28125 C 302.320312 605.527344 354.683594 637.796875 402.507812 650.613281 C 403.324219 650.832031 404.160156 650.941406 404.996094 650.941406 C 405.832031 650.941406 406.667969 650.832031 407.484375 650.613281 C 455.308594 637.796875 507.671875 605.527344 547.558594 564.28125 C 569.613281 541.480469 587.035156 516.945312 599.335938 491.363281 C 613.066406 462.808594 620.027344 433.644531 620.027344 404.675781 L 620.027344 225.199219 C 620.027344 220.1875 616.175781 216.015625 611.183594 215.621094 Z M 600.808594 404.675781 C 600.808594 515.722656 485.933594 608.425781 404.996094 631.363281 C 324.058594 608.425781 209.183594 515.722656 209.183594 404.675781 L 209.183594 233.910156 C 255.753906 228.472656 303.453125 209.316406 347.871094 178.160156 L 462.121094 178.160156 C 506.539062 209.316406 554.238281 228.472656 600.808594 233.910156 Z M 448.1875 300.742188 C 448.1875 295.433594 443.882812 291.132812 438.578125 291.132812 L 371.417969 291.132812 C 366.109375 291.132812 361.804688 295.433594 361.804688 300.742188 L 361.804688 341.636719 L 320.914062 341.636719 C 315.605469 341.636719 311.300781 345.9375 311.300781 351.246094 L 311.300781 418.402344 C 311.300781 423.707031 315.605469 428.011719 320.914062 428.011719 L 361.804688 428.011719 L 361.804688 468.90625 C 361.804688 474.210938 366.109375 478.515625 371.417969 478.515625 L 438.578125 478.515625 C 443.882812 478.515625 448.1875 474.210938 448.1875 468.90625 L 448.1875 428.011719 L 489.078125 428.011719 C 494.386719 428.011719 498.6875 423.707031 498.6875 418.402344 L 498.6875 351.246094 C 498.6875 345.9375 494.386719 341.636719 489.078125 341.636719 L 448.1875 341.636719 Z M 479.46875 360.855469 L 479.46875 408.792969 L 438.578125 408.792969 C 433.269531 408.792969 428.96875 413.097656 428.96875 418.402344 L 428.96875 459.296875 L 381.027344 459.296875 L 381.027344 418.402344 C 381.027344 413.097656 376.722656 408.792969 371.417969 408.792969 L 330.523438 408.792969 L 330.523438 360.855469 L 371.417969 360.855469 C 376.722656 360.855469 381.027344 356.550781 381.027344 351.246094 L 381.027344 310.351562 L 428.96875 310.351562 L 428.96875 351.246094 C 428.96875 356.550781 433.269531 360.855469 438.578125 360.855469 Z M 479.46875 360.855469 " fill-opacity="1" fill-rule="nonzero"/></g></svg>