<svg xmlns="http://www.w3.org/2000/svg" xmlns:xlink="http://www.w3.org/1999/xlink" width="1080" zoomAndPan="magnify" viewBox="0 0 810 809.999993" height="1080" preserveAspectRatio="xMidYMid meet" version="1.0"><defs><clipPath id="2bc71c151a"><path d="M 181 160 L 656 160 L 656 650.609375 L 181 650.609375 Z M 181 160 " clip-rule="nonzero"/></clipPath></defs><rect x="-81" width="972" fill="#ffffff" y="-80.999999" height="971.999992" fill-opacity="1"/><rect x="-81" width="972" fill="#ffffff" y="-80.999999" height="971.999992" fill-opacity="1"/><path fill="#000000" d="M 149.113281 602.371094 C 149.515625 602.371094 149.515625 602.371094 149.113281 602.371094 C 153.9375 601.96875 157.554688 598.351562 157.152344 593.925781 C 156.75 578.25 157.957031 534.429688 172.429688 519.15625 C 175.648438 515.9375 178.863281 514.332031 183.289062 514.332031 C 192.132812 514.332031 203.390625 515.535156 216.65625 517.144531 C 260.882812 521.96875 321.195312 528.402344 365.421875 499.859375 C 388.738281 484.984375 402.410156 463.277344 405.625 436.742188 C 409.648438 404.179688 396.378906 368 371.050781 341.871094 L 363.8125 334.234375 C 326.019531 295.238281 278.976562 246.59375 271.339844 183.078125 C 270.9375 178.65625 266.914062 175.441406 262.492188 176.246094 C 258.070312 176.648438 254.855469 180.667969 255.65625 185.089844 C 264.101562 253.832031 315.164062 306.894531 352.554688 345.488281 L 359.792969 352.726562 C 381.503906 375.238281 393.164062 407.398438 389.945312 434.734375 C 387.535156 456.039062 375.875 473.726562 356.976562 486.191406 C 317.574219 511.515625 260.082031 505.488281 218.667969 501.066406 C 205 499.457031 192.9375 498.25 183.289062 498.25 C 174.84375 498.25 167.203125 501.464844 160.773438 508.300781 C 138.660156 531.214844 141.070312 588.703125 141.070312 595.132812 C 141.472656 599.152344 145.089844 602.371094 149.113281 602.371094 Z M 149.113281 602.371094 " fill-opacity="1" fill-rule="nonzero"/><g clip-path="url(#2bc71c151a)"><path fill="#000000" d="M 402.410156 268.707031 L 405.222656 269.507812 C 414.472656 271.921875 424.523438 274.332031 432.160156 269.109375 C 436.988281 265.890625 439.800781 260.664062 441.007812 253.429688 C 444.625 230.515625 457.089844 191.117188 496.089844 187.5 C 568.460938 180.265625 617.109375 246.996094 631.984375 312.121094 C 654.5 410.210938 629.976562 543.273438 523.429688 603.171875 C 449.851562 644.582031 357.78125 645.785156 293.851562 605.988281 C 284.605469 600.359375 276.164062 592.722656 267.316406 585.082031 C 255.253906 574.230469 242.390625 562.972656 226.710938 556.140625 C 213.441406 550.511719 204.195312 553.324219 198.566406 556.542969 C 184.894531 564.984375 182.082031 584.28125 181.277344 595.132812 C 180.875 599.554688 184.492188 603.574219 188.914062 603.574219 C 193.339844 603.976562 197.359375 600.359375 197.359375 595.9375 C 198.164062 583.074219 201.78125 573.425781 207.007812 570.210938 C 210.226562 568.199219 214.648438 568.601562 220.277344 571.011719 C 233.945312 577.042969 244.800781 586.691406 256.863281 597.144531 C 265.710938 605.183594 274.957031 613.222656 285.410156 619.65625 C 319.183594 640.558594 359.792969 650.609375 402.007812 650.609375 C 445.832031 650.609375 491.265625 639.355469 531.46875 616.84375 C 645.253906 552.921875 671.386719 412.222656 647.664062 308.503906 C 631.179688 236.546875 576.5 162.976562 494.480469 171.019531 C 458.296875 174.636719 432.964844 203.582031 425.328125 250.617188 C 424.925781 253.429688 424.121094 255.039062 423.316406 255.441406 C 421.304688 256.644531 414.070312 255.039062 408.84375 253.832031 L 406.027344 253.027344 C 359.792969 241.769531 322.800781 207.199219 313.957031 166.597656 C 313.152344 162.175781 308.730469 159.359375 304.308594 160.566406 C 299.882812 161.371094 297.070312 165.792969 298.277344 170.214844 C 308.730469 217.25 349.335938 255.839844 402.410156 268.707031 Z M 402.410156 268.707031 " fill-opacity="1" fill-rule="nonzero"/></g><path fill="#000000" d="M 437.789062 435.941406 C 434.976562 437.144531 433.367188 439.558594 432.964844 442.371094 C 428.945312 475.738281 410.449219 504.683594 381.101562 523.175781 C 355.367188 539.253906 323.605469 547.695312 282.996094 548.097656 C 279.78125 548.097656 276.566406 550.109375 275.761719 553.324219 C 274.554688 556.542969 275.359375 559.757812 277.769531 562.167969 C 280.585938 564.582031 283.398438 566.992188 285.8125 569.40625 L 286.617188 570.210938 C 294.253906 577.042969 301.492188 583.476562 308.730469 587.898438 C 335.667969 604.78125 369.039062 613.222656 403.214844 613.222656 C 439.800781 613.222656 477.996094 603.574219 512.171875 584.28125 C 566.046875 553.726562 601.429688 497.445312 612.285156 426.292969 C 612.6875 423.074219 611.078125 419.457031 607.863281 417.847656 C 569.265625 397.75 535.894531 415.839844 505.738281 438.753906 C 479.203125 458.855469 452.667969 441.96875 445.027344 436.339844 C 443.417969 435.136719 440.203125 434.734375 437.789062 435.941406 Z M 447.039062 456.441406 C 466.738281 466.492188 492.472656 469.707031 516.191406 452.019531 C 549.964844 426.292969 572.480469 419.859375 595.800781 429.910156 C 584.945312 493.425781 552.78125 543.273438 504.53125 570.613281 C 443.820312 605.183594 369.039062 606.390625 317.574219 574.632812 C 313.152344 571.816406 308.328125 567.796875 303.503906 563.375 C 337.679688 560.5625 366.222656 551.71875 389.945312 536.84375 C 419.699219 517.949219 439.800781 489.808594 447.039062 456.441406 Z M 447.039062 456.441406 " fill-opacity="1" fill-rule="nonzero"/><path fill="#000000" d="M 434.574219 523.980469 C 436.988281 525.183594 439.800781 525.988281 443.417969 525.988281 C 449.449219 525.988281 456.6875 523.175781 461.914062 515.132812 C 464.328125 511.515625 463.121094 506.289062 459.5 503.878906 C 455.882812 501.464844 450.65625 502.671875 448.246094 506.289062 C 446.234375 509.507812 444.222656 510.3125 441.8125 509.507812 C 437.789062 507.496094 432.964844 509.105469 430.957031 513.125 C 428.945312 517.144531 430.554688 521.96875 434.574219 523.980469 Z M 434.574219 523.980469 " fill-opacity="1" fill-rule="nonzero"/><path fill="#000000" d="M 483.625 530.007812 C 484.027344 530.007812 484.832031 530.007812 485.234375 530.007812 C 489.65625 529.203125 492.472656 524.78125 491.265625 520.359375 C 490.460938 516.742188 491.265625 514.332031 493.675781 513.527344 C 497.699219 511.917969 500.109375 507.496094 498.5 503.476562 C 497.296875 499.054688 492.472656 497.042969 488.449219 498.25 C 481.613281 500.664062 472.367188 509.105469 475.585938 523.578125 C 476.386719 527.597656 479.605469 530.007812 483.625 530.007812 Z M 483.625 530.007812 " fill-opacity="1" fill-rule="nonzero"/><path fill="#000000" d="M 408.039062 546.492188 C 401.203125 548.902344 391.957031 557.34375 395.171875 571.816406 C 395.976562 575.433594 399.191406 578.25 403.214844 578.25 C 403.617188 578.25 404.417969 578.25 404.820312 578.25 C 409.246094 577.445312 412.058594 573.023438 410.851562 568.601562 C 410.046875 564.984375 410.851562 562.570312 413.265625 561.765625 C 417.285156 560.160156 419.699219 555.738281 418.089844 551.71875 C 416.882812 547.695312 412.460938 545.285156 408.039062 546.492188 Z M 408.039062 546.492188 " fill-opacity="1" fill-rule="nonzero"/><path fill="#000000" d="M 531.070312 507.898438 C 531.871094 511.515625 531.070312 513.929688 528.65625 514.734375 C 524.636719 516.339844 522.222656 520.761719 523.832031 524.78125 C 525.039062 528 528.253906 530.410156 531.46875 530.410156 C 532.273438 530.410156 533.078125 530.410156 533.882812 530.007812 C 540.71875 527.597656 549.964844 519.15625 546.75 504.683594 C 545.945312 500.261719 541.523438 497.445312 537.097656 498.652344 C 532.675781 499.054688 529.863281 503.476562 531.070312 507.898438 Z M 531.070312 507.898438 " fill-opacity="1" fill-rule="nonzero"/><path fill="#000000" d="M 519.007812 489.808594 C 519.8125 489.808594 520.613281 489.808594 521.417969 489.40625 C 528.253906 486.996094 537.5 478.550781 534.285156 464.082031 C 533.480469 459.65625 529.058594 456.84375 524.636719 458.050781 C 520.210938 458.855469 517.398438 463.277344 518.605469 467.699219 C 519.410156 471.316406 518.605469 473.726562 516.191406 474.53125 C 512.171875 476.140625 509.757812 480.5625 511.367188 484.582031 C 512.574219 487.796875 515.789062 489.808594 519.007812 489.808594 Z M 519.007812 489.808594 " fill-opacity="1" fill-rule="nonzero"/><path fill="#000000" d="M 452.265625 546.492188 C 449.046875 543.273438 444.222656 543.675781 441.007812 546.492188 C 437.789062 549.707031 437.789062 554.53125 441.007812 557.746094 C 441.410156 558.148438 447.441406 564.179688 457.894531 564.179688 C 462.71875 564.179688 468.347656 562.972656 474.78125 558.953125 C 478.398438 556.542969 480.007812 551.71875 477.59375 548.097656 C 475.183594 544.480469 470.359375 542.875 466.738281 545.285156 C 457.894531 550.511719 453.070312 547.296875 452.265625 546.492188 Z M 452.265625 546.492188 " fill-opacity="1" fill-rule="nonzero"/><path fill="#000000" d="M 442.617188 385.289062 C 442.617188 398.554688 453.472656 409.40625 466.738281 409.40625 C 480.007812 409.40625 490.863281 398.554688 490.863281 385.289062 C 490.863281 372.019531 480.007812 361.167969 466.738281 361.167969 C 453.472656 361.167969 442.617188 372.019531 442.617188 385.289062 Z M 466.738281 377.246094 C 471.160156 377.246094 474.78125 380.863281 474.78125 385.289062 C 474.78125 389.710938 471.160156 393.328125 466.738281 393.328125 C 462.316406 393.328125 458.699219 389.710938 458.699219 385.289062 C 458.699219 380.863281 462.316406 377.246094 466.738281 377.246094 Z M 466.738281 377.246094 " fill-opacity="1" fill-rule="nonzero"/><path fill="#000000" d="M 587.355469 324.988281 C 587.355469 311.71875 576.5 300.867188 563.234375 300.867188 C 549.964844 300.867188 539.109375 311.71875 539.109375 324.988281 C 539.109375 338.253906 549.964844 349.105469 563.234375 349.105469 C 576.902344 349.105469 587.355469 338.253906 587.355469 324.988281 Z M 555.191406 324.988281 C 555.191406 320.5625 558.8125 316.945312 563.234375 316.945312 C 567.65625 316.945312 571.273438 320.5625 571.273438 324.988281 C 571.273438 329.410156 567.65625 333.027344 563.234375 333.027344 C 558.8125 333.027344 555.191406 329.410156 555.191406 324.988281 Z M 555.191406 324.988281 " fill-opacity="1" fill-rule="nonzero"/><path fill="#000000" d="M 510.964844 300.867188 C 510.964844 285.1875 498.5 272.726562 482.820312 272.726562 C 467.140625 272.726562 454.675781 285.1875 454.675781 300.867188 C 454.675781 316.542969 467.140625 329.007812 482.820312 329.007812 C 498.5 329.007812 510.964844 316.542969 510.964844 300.867188 Z M 470.757812 300.867188 C 470.757812 294.03125 475.988281 288.804688 482.820312 288.804688 C 489.65625 288.804688 494.882812 294.03125 494.882812 300.867188 C 494.882812 307.699219 489.65625 312.925781 482.820312 312.925781 C 475.988281 312.925781 470.757812 307.699219 470.757812 300.867188 Z M 470.757812 300.867188 " fill-opacity="1" fill-rule="nonzero"/></svg>