<svg xmlns="http://www.w3.org/2000/svg" xmlns:xlink="http://www.w3.org/1999/xlink" width="1080" zoomAndPan="magnify" viewBox="0 0 810 809.999993" height="1080" preserveAspectRatio="xMidYMid meet" version="1.0"><defs><clipPath id="ceb553c7b9"><path d="M 251 161 L 508 161 L 508 650.851562 L 251 650.851562 Z M 251 161 " clip-rule="nonzero"/></clipPath><clipPath id="2251bfe3ca"><path d="M 487 322 L 561.886719 322 L 561.886719 336 L 487 336 Z M 487 322 " clip-rule="nonzero"/></clipPath></defs><rect x="-81" width="972" fill="#ffffff" y="-80.999999" height="971.999992" fill-opacity="1"/><rect x="-81" width="972" fill="#ffffff" y="-80.999999" height="971.999992" fill-opacity="1"/><g clip-path="url(#ceb553c7b9)"><path fill="#000000" d="M 358.070312 650.851562 C 343.605469 650.851562 331.835938 638.757812 331.835938 623.894531 C 331.835938 623.066406 334.152344 571.34375 335.53125 540.582031 C 335.542969 540.300781 335.578125 540.023438 335.632812 539.746094 C 336.386719 535.945312 364.652344 475.796875 388.902344 424.605469 L 362.46875 393.015625 L 360.335938 447.117188 C 359.855469 459.367188 349.863281 468.96875 337.585938 468.972656 C 337.292969 468.972656 337 468.964844 336.703125 468.953125 C 330.710938 468.726562 325.121094 466.140625 320.972656 461.667969 C 316.761719 457.128906 314.578125 451.25 314.820312 445.125 C 314.820312 445.085938 314.820312 445.042969 314.824219 445.003906 L 324.589844 285.210938 C 308.734375 288.242188 292.882812 285.085938 279.242188 276.035156 C 263.535156 265.609375 253.222656 248.710938 251.65625 230.824219 C 248.59375 195.894531 274.566406 164.992188 309.550781 161.933594 C 344.53125 158.882812 375.484375 184.8125 378.546875 219.742188 C 379.253906 227.824219 378.425781 235.855469 376.140625 243.492188 L 376.816406 243.230469 C 376.929688 243.1875 377.042969 243.148438 377.15625 243.113281 C 379.921875 242.242188 382.878906 240.730469 385.742188 239.265625 C 391.480469 236.328125 396.898438 233.554688 401.675781 236.152344 C 402.503906 236.601562 403.425781 237.289062 404.230469 238.332031 L 438.308594 204.101562 C 438.660156 203.738281 439.085938 203.335938 439.527344 202.953125 C 445.589844 197.664062 453.992188 196.253906 461.457031 199.273438 C 469.5 202.519531 474.707031 210.21875 474.730469 218.878906 L 474.976562 324.222656 C 474.988281 329.886719 472.792969 335.214844 468.789062 339.230469 C 464.785156 343.246094 459.457031 345.464844 453.785156 345.476562 L 453.734375 345.476562 C 448.078125 345.476562 442.761719 343.285156 438.753906 339.300781 C 434.734375 335.304688 432.511719 329.984375 432.496094 324.320312 L 432.375 271.027344 L 429.277344 274.210938 C 427.25 276.296875 423.957031 276.472656 421.714844 274.621094 C 419.367188 272.6875 415.144531 269.058594 414.964844 268.902344 C 412.625 266.894531 412.359375 263.375 414.371094 261.039062 C 416.382812 258.703125 419.910156 258.4375 422.246094 260.445312 C 422.269531 260.464844 423.449219 261.480469 424.894531 262.707031 L 433.921875 253.4375 C 435.507812 251.8125 437.917969 251.304688 440.023438 252.15625 C 442.128906 253.007812 443.507812 255.046875 443.515625 257.3125 L 443.667969 324.292969 C 443.675781 326.980469 444.730469 329.5 446.632812 331.394531 C 448.535156 333.28125 451.054688 334.320312 453.734375 334.320312 L 453.757812 334.320312 C 456.449219 334.316406 458.972656 333.265625 460.871094 331.363281 C 462.765625 329.457031 463.808594 326.929688 463.800781 324.246094 L 463.554688 218.90625 C 463.546875 214.800781 461.078125 211.152344 457.265625 209.609375 C 453.726562 208.179688 449.746094 208.847656 446.871094 211.351562 C 446.664062 211.535156 446.464844 211.726562 446.277344 211.917969 L 408.519531 249.847656 C 406.363281 252.015625 403.226562 252.726562 400.335938 251.703125 C 398.039062 250.886719 396.316406 249.117188 395.566406 246.898438 C 394.113281 247.515625 392.242188 248.472656 390.835938 249.191406 C 387.761719 250.765625 384.285156 252.542969 380.679688 253.699219 L 367.933594 258.609375 C 365.738281 259.453125 363.253906 258.835938 361.710938 257.066406 C 360.167969 255.296875 359.898438 252.75 361.039062 250.699219 C 366.125 241.550781 368.332031 231.183594 367.414062 220.714844 C 364.890625 191.910156 339.371094 170.523438 310.519531 173.046875 C 281.675781 175.566406 260.261719 201.050781 262.785156 229.855469 C 264.058594 244.390625 272.523438 258.179688 285.425781 266.742188 C 298.402344 275.355469 313.851562 277.4375 328.925781 272.609375 C 330.679688 272.046875 332.601562 272.386719 334.058594 273.515625 C 335.515625 274.648438 336.320312 276.421875 336.207031 278.261719 L 325.980469 445.617188 C 325.871094 448.742188 327.003906 451.75 329.171875 454.089844 C 331.289062 456.371094 334.121094 457.691406 337.140625 457.804688 C 337.300781 457.8125 337.445312 457.816406 337.589844 457.816406 C 343.839844 457.816406 348.929688 452.921875 349.175781 446.675781 L 351.851562 378.714844 C 351.855469 378.644531 351.851562 378.574219 351.851562 378.5 L 351.851562 378.289062 C 351.859375 375.945312 353.335938 373.855469 355.542969 373.0625 C 357.75 372.265625 360.21875 372.929688 361.726562 374.730469 L 399.769531 420.191406 C 401.164062 421.859375 401.460938 424.1875 400.53125 426.152344 C 380.191406 469.066406 349.597656 534.167969 346.65625 541.851562 C 345.40625 569.765625 343.089844 621.503906 343.007812 623.964844 C 343.042969 632.644531 349.785156 639.695312 358.070312 639.695312 C 365.84375 639.695312 372.285156 633.585938 373.054688 625.480469 C 373.058594 625.414062 373.066406 625.34375 373.078125 625.273438 C 373.378906 622.632812 379.34375 558.523438 381.625 533.964844 C 381.683594 533.308594 381.859375 532.671875 382.144531 532.078125 L 419.738281 453.34375 C 421.007812 450.6875 424.121094 449.472656 426.859375 450.570312 C 430.386719 451.980469 430.492188 455.328125 430.570312 457.769531 C 430.613281 459.132812 430.632812 461.078125 430.636719 463.714844 C 430.644531 468.59375 430.585938 475.375 430.523438 482.554688 C 430.378906 499.285156 430.140625 527.222656 431.007812 531.390625 C 431.117188 531.726562 431.195312 532.074219 431.238281 532.429688 C 435.765625 569.152344 442.585938 624.160156 443.414062 630.003906 C 445.78125 635.882812 452.476562 638.566406 457.820312 638.566406 L 457.839844 638.566406 C 459.765625 638.566406 461.667969 638.222656 463.492188 637.542969 C 474.871094 633.289062 473.6875 621.101562 472.648438 616.058594 C 472.625 615.941406 472.601562 615.824219 472.585938 615.707031 L 459.746094 523.566406 C 459.511719 521.875 459.574219 520.171875 459.933594 518.503906 L 477.570312 436.683594 C 477.878906 435.246094 478.746094 433.988281 479.980469 433.183594 C 488.671875 427.523438 497.203125 414.351562 496.429688 402.109375 C 495.792969 392.050781 492.367188 376.824219 471.347656 348.140625 C 469.527344 345.652344 470.070312 342.164062 472.558594 340.34375 C 475.046875 338.523438 478.542969 339.066406 480.367188 341.550781 C 503.09375 372.570312 506.847656 389.832031 507.582031 401.40625 C 508.597656 417.539062 498.796875 433.164062 488.03125 441.171875 L 470.855469 520.851562 C 470.769531 521.242188 470.757812 521.636719 470.8125 522.03125 L 483.628906 613.996094 C 486.859375 630.023438 480.652344 643.039062 467.402344 647.992188 C 464.316406 649.140625 461.101562 649.722656 457.84375 649.722656 L 457.8125 649.722656 C 446.308594 649.722656 436.230469 643.132812 432.726562 633.316406 C 432.453125 632.546875 432.253906 632 420.195312 534.175781 C 419.203125 530.03125 419.042969 518.460938 419.351562 482.457031 C 419.359375 481.652344 419.367188 480.839844 419.375 480.023438 L 392.652344 535.980469 C 389.617188 568.667969 384.6875 621.667969 384.167969 626.53125 L 384.171875 626.53125 C 382.859375 640.394531 371.636719 650.847656 358.066406 650.847656 Z M 430.925781 531.152344 C 430.945312 531.207031 430.964844 531.261719 430.980469 531.3125 C 430.960938 531.253906 430.941406 531.199219 430.925781 531.152344 Z M 430.925781 531.152344 " fill-opacity="1" fill-rule="nonzero"/></g><g clip-path="url(#2251bfe3ca)"><path fill="#000000" d="M 487.511719 327.230469 L 520.382812 330.113281 L 520.339844 335.296875 L 561.722656 331.25 L 528.878906 327.488281 L 528.71875 322.089844 Z M 487.511719 327.230469 " fill-opacity="1" fill-rule="nonzero"/></g><path fill="#000000" d="M 483.289062 324.632812 L 517.464844 302.863281 L 521.3125 307.945312 L 558.589844 273.070312 L 523.773438 293.960938 L 519.570312 288.816406 Z M 483.289062 324.632812 " fill-opacity="1" fill-rule="nonzero"/><path fill="#000000" d="M 481.289062 320.113281 L 494.527344 289.933594 L 499.433594 291.632812 L 508.820312 251.183594 L 494.75 281.058594 L 489.578125 279.484375 Z M 481.289062 320.113281 " fill-opacity="1" fill-rule="nonzero"/></svg>