<svg xmlns="http://www.w3.org/2000/svg" xmlns:xlink="http://www.w3.org/1999/xlink" width="1080" zoomAndPan="magnify" viewBox="0 0 810 809.999993" height="1080" preserveAspectRatio="xMidYMid meet" version="1.0"><defs><clipPath id="1faaabb930"><path d="M 185 159.496094 L 530 159.496094 L 530 650.746094 L 185 650.746094 Z M 185 159.496094 " clip-rule="nonzero"/></clipPath><clipPath id="55a3588883"><path d="M 152 639 L 646 639 L 646 650.746094 L 152 650.746094 Z M 152 639 " clip-rule="nonzero"/></clipPath><clipPath id="813fca281b"><path d="M 384 323 L 658.578125 323 L 658.578125 488 L 384 488 Z M 384 323 " clip-rule="nonzero"/></clipPath></defs><rect x="-81" width="972" fill="#ffffff" y="-80.999999" height="971.999992" fill-opacity="1"/><rect x="-81" width="972" fill="#ffffff" y="-80.999999" height="971.999992" fill-opacity="1"/><g clip-path="url(#1faaabb930)"><path fill="#000000" d="M 501.542969 650.789062 C 498.476562 650.789062 495.988281 648.300781 495.988281 645.234375 C 495.988281 642.164062 498.476562 639.675781 501.542969 639.675781 C 510.855469 639.675781 518.433594 632.097656 518.433594 622.78125 L 518.433594 481.652344 C 518.433594 478.585938 520.921875 476.097656 523.988281 476.097656 C 527.054688 476.097656 529.546875 478.585938 529.546875 481.652344 L 529.546875 622.78125 C 529.558594 638.21875 516.988281 650.789062 501.542969 650.789062 Z M 213.167969 650.789062 C 197.722656 650.789062 185.164062 638.21875 185.164062 622.78125 L 185.164062 187.546875 C 185.164062 172.101562 197.734375 159.539062 213.167969 159.539062 L 501.542969 159.539062 C 516.988281 159.539062 529.546875 172.109375 529.546875 187.546875 L 529.546875 328.675781 C 529.546875 331.746094 527.054688 334.234375 523.988281 334.234375 C 520.921875 334.234375 518.433594 331.746094 518.433594 328.675781 L 518.433594 187.546875 C 518.433594 178.234375 510.855469 170.65625 501.542969 170.65625 L 213.167969 170.65625 C 203.855469 170.65625 196.277344 178.234375 196.277344 187.546875 L 196.277344 622.78125 C 196.277344 632.097656 203.855469 639.675781 213.167969 639.675781 C 216.234375 639.675781 218.722656 642.167969 218.722656 645.234375 C 218.722656 648.300781 216.234375 650.789062 213.167969 650.789062 Z M 213.167969 650.789062 " fill-opacity="1" fill-rule="nonzero"/></g><path fill="#000000" d="M 524 593.796875 L 190.722656 593.796875 C 187.652344 593.796875 185.164062 591.308594 185.164062 588.238281 C 185.164062 585.171875 187.652344 582.683594 190.722656 582.683594 L 523.988281 582.683594 C 527.054688 582.683594 529.546875 585.171875 529.546875 588.238281 C 529.546875 591.308594 527.066406 593.796875 524 593.796875 Z M 524 593.796875 " fill-opacity="1" fill-rule="nonzero"/><path fill="#000000" d="M 409.167969 626.605469 L 305.554688 626.605469 C 293.441406 626.605469 283.597656 616.746094 283.597656 604.644531 L 283.597656 588.238281 C 283.597656 585.171875 286.085938 582.683594 289.152344 582.683594 C 292.21875 582.683594 294.710938 585.171875 294.710938 588.238281 L 294.710938 604.644531 C 294.710938 610.625 299.578125 615.492188 305.554688 615.492188 L 409.167969 615.492188 C 415.144531 615.492188 420.011719 610.625 420.011719 604.644531 L 420.011719 588.238281 C 420.011719 585.171875 422.5 582.683594 425.566406 582.683594 C 428.636719 582.683594 431.125 585.171875 431.125 588.238281 L 431.125 604.644531 C 431.125 616.757812 421.277344 626.605469 409.167969 626.605469 Z M 409.167969 626.605469 " fill-opacity="1" fill-rule="nonzero"/><g clip-path="url(#55a3588883)"><path fill="#000000" d="M 639.746094 650.789062 L 157.574219 650.789062 C 154.507812 650.789062 152.015625 648.300781 152.015625 645.234375 C 152.015625 642.164062 154.507812 639.675781 157.574219 639.675781 L 639.746094 639.675781 C 642.8125 639.675781 645.300781 642.164062 645.300781 645.234375 C 645.300781 648.300781 642.8125 650.789062 639.746094 650.789062 Z M 639.746094 650.789062 " fill-opacity="1" fill-rule="nonzero"/></g><path fill="#000000" d="M 524 224.726562 L 190.722656 224.726562 C 187.652344 224.726562 185.164062 222.234375 185.164062 219.167969 C 185.164062 216.101562 187.652344 213.613281 190.722656 213.613281 L 523.988281 213.613281 C 527.054688 213.613281 529.546875 216.101562 529.546875 219.167969 C 529.546875 222.234375 527.066406 224.726562 524 224.726562 Z M 524 224.726562 " fill-opacity="1" fill-rule="nonzero"/><g clip-path="url(#813fca281b)"><path fill="#000000" d="M 652.601562 487.210938 L 390.207031 487.210938 C 387.140625 487.210938 384.652344 484.722656 384.652344 481.652344 C 384.652344 478.585938 387.140625 476.097656 390.207031 476.097656 L 647.046875 476.097656 L 647.046875 334.234375 L 474.761719 334.234375 C 471.695312 334.234375 469.207031 331.746094 469.207031 328.675781 C 469.207031 325.609375 471.695312 323.121094 474.761719 323.121094 L 652.601562 323.121094 C 655.671875 323.121094 658.160156 325.609375 658.160156 328.675781 L 658.160156 481.664062 C 658.160156 484.722656 655.671875 487.210938 652.601562 487.210938 Z M 652.601562 487.210938 " fill-opacity="1" fill-rule="nonzero"/></g><path fill="#000000" d="M 353.203125 529.945312 C 351.59375 529.945312 350.058594 529.246094 349.003906 528.023438 L 240.503906 402.742188 C 216.367188 374.867188 216.367188 329.523438 240.503906 301.660156 C 252.382812 287.945312 268.296875 280.386719 285.332031 280.386719 C 302.355469 280.386719 318.277344 287.945312 330.15625 301.660156 L 353.214844 328.277344 L 376.273438 301.660156 C 388.152344 287.945312 404.066406 280.386719 421.101562 280.386719 C 438.125 280.386719 454.046875 287.945312 465.917969 301.660156 C 490.050781 329.53125 490.050781 374.878906 465.917969 402.742188 L 357.417969 528.023438 C 356.347656 529.246094 354.816406 529.945312 353.203125 529.945312 Z M 285.332031 291.5 C 271.574219 291.5 258.640625 297.691406 248.90625 308.925781 C 228.246094 332.789062 228.246094 371.601562 248.90625 395.464844 L 353.203125 515.898438 L 457.503906 395.464844 C 478.164062 371.601562 478.164062 332.789062 457.503906 308.925781 C 447.769531 297.691406 434.835938 291.5 421.078125 291.5 C 407.320312 291.5 394.386719 297.691406 384.652344 308.925781 L 357.394531 340.390625 C 356.339844 341.613281 354.804688 342.316406 353.195312 342.316406 C 351.582031 342.316406 350.050781 341.613281 348.992188 340.390625 L 321.734375 308.925781 C 312.023438 297.691406 299.089844 291.5 285.332031 291.5 Z M 285.332031 291.5 " fill-opacity="1" fill-rule="nonzero"/><path fill="#000000" d="M 368.105469 459.613281 L 338.304688 459.613281 C 335.234375 459.613281 332.746094 457.125 332.746094 454.058594 L 332.746094 425.628906 L 304.320312 425.628906 C 301.253906 425.628906 298.765625 423.136719 298.765625 420.070312 L 298.765625 390.261719 C 298.765625 387.195312 301.253906 384.703125 304.320312 384.703125 L 332.746094 384.703125 L 332.746094 356.273438 C 332.746094 353.207031 335.234375 350.71875 338.304688 350.71875 L 368.105469 350.71875 C 371.171875 350.71875 373.664062 353.207031 373.664062 356.273438 L 373.664062 384.703125 L 402.085938 384.703125 C 405.15625 384.703125 407.644531 387.195312 407.644531 390.261719 L 407.644531 420.070312 C 407.644531 423.136719 405.15625 425.628906 402.085938 425.628906 L 373.664062 425.628906 L 373.664062 454.058594 C 373.664062 457.125 371.171875 459.613281 368.105469 459.613281 Z M 343.859375 448.5 L 362.550781 448.5 L 362.550781 420.070312 C 362.550781 417.003906 365.039062 414.511719 368.105469 414.511719 L 396.53125 414.511719 L 396.53125 395.820312 L 368.105469 395.820312 C 365.039062 395.820312 362.550781 393.328125 362.550781 390.261719 L 362.550781 361.832031 L 343.859375 361.832031 L 343.859375 390.261719 C 343.859375 393.328125 341.371094 395.820312 338.304688 395.820312 L 309.878906 395.820312 L 309.878906 414.511719 L 338.304688 414.511719 C 341.371094 414.511719 343.859375 417.003906 343.859375 420.070312 Z M 343.859375 448.5 " fill-opacity="1" fill-rule="nonzero"/><path fill="#000000" d="M 534.3125 458.613281 C 534.113281 458.613281 533.914062 458.601562 533.703125 458.582031 C 531.511719 458.335938 529.667969 456.824219 529.011719 454.722656 L 508.753906 390.292969 L 489.128906 432.894531 C 488.21875 434.863281 486.253906 436.128906 484.085938 436.128906 L 434.445312 436.128906 C 431.378906 436.128906 428.890625 433.640625 428.890625 430.574219 C 428.890625 427.503906 431.378906 425.015625 434.445312 425.015625 L 480.527344 425.015625 L 504.6875 372.566406 C 505.652344 370.476562 507.808594 369.199219 510.089844 369.34375 C 512.378906 369.488281 514.34375 371.035156 515.03125 373.222656 L 535.824219 439.332031 L 552.414062 410.578125 C 553.402344 408.855469 555.238281 407.800781 557.226562 407.800781 L 615.742188 407.800781 C 618.808594 407.800781 621.300781 410.289062 621.300781 413.355469 C 621.300781 416.425781 618.808594 418.914062 615.742188 418.914062 L 560.4375 418.914062 L 539.125 455.835938 C 538.125 457.570312 536.28125 458.613281 534.3125 458.613281 Z M 534.3125 458.613281 " fill-opacity="1" fill-rule="nonzero"/></svg>