<svg xmlns="http://www.w3.org/2000/svg" xmlns:xlink="http://www.w3.org/1999/xlink" width="1080" zoomAndPan="magnify" viewBox="0 0 810 809.999993" height="1080" preserveAspectRatio="xMidYMid meet" version="1.0"><defs><clipPath id="9fa947f86b"><path d="M 206.355469 161 L 591 161 L 591 650.257812 L 206.355469 650.257812 Z M 206.355469 161 " clip-rule="nonzero"/></clipPath></defs><rect x="-81" width="972" fill="#ffffff" y="-80.999999" height="971.999992" fill-opacity="1"/><rect x="-81" width="972" fill="#ffffff" y="-80.999999" height="971.999992" fill-opacity="1"/><g clip-path="url(#9fa947f86b)"><path fill="#000000" d="M 336.402344 650.257812 L 550.398438 650.257812 C 551.792969 650.257812 553.105469 649.605469 553.949219 648.492188 C 554.792969 647.382812 555.070312 645.941406 554.699219 644.597656 L 517.289062 509.925781 C 514.742188 500.753906 516.816406 490.898438 522.84375 483.558594 C 547.65625 453.34375 603.625 373.570312 587.554688 285.609375 C 578.320312 235.066406 550.679688 199.464844 505.402344 179.792969 C 472.734375 165.597656 430.886719 159.785156 381.035156 162.515625 C 305.0625 166.679688 251.78125 218.023438 238.507812 299.859375 C 237.585938 305.53125 237.917969 311.480469 239.460938 317.058594 L 243.566406 331.914062 C 245.875 340.257812 244.617188 349.285156 240.117188 356.675781 L 208.894531 407.972656 C 206.800781 411.40625 206.351562 415.5625 207.652344 419.367188 C 208.957031 423.171875 211.863281 426.175781 215.621094 427.609375 L 233.855469 434.554688 C 234.527344 434.808594 234.871094 435.566406 234.625 436.242188 L 226.707031 457.894531 C 224.527344 463.863281 227.214844 470.410156 232.960938 473.121094 L 233.960938 473.59375 L 232.027344 475.589844 C 227.832031 479.921875 227.417969 486.570312 231.035156 491.398438 L 233.871094 495.179688 C 235.984375 497.996094 237.183594 501.347656 237.34375 504.863281 L 237.660156 512.015625 C 237.714844 513.269531 237.632812 514.535156 237.417969 515.773438 L 236.542969 520.816406 C 235.199219 528.550781 237.339844 536.414062 242.421875 542.398438 C 247.449219 548.3125 254.753906 551.6875 262.503906 551.6875 C 262.59375 551.6875 262.679688 551.6875 262.769531 551.6875 L 330.132812 551.015625 C 332.949219 550.992188 335.609375 552.085938 337.585938 554.109375 C 339.5625 556.132812 340.597656 558.800781 340.503906 561.628906 C 339.75 584.015625 337.65625 624.5625 332.097656 644.601562 C 331.726562 645.945312 332.003906 647.382812 332.847656 648.492188 C 333.691406 649.605469 335.007812 650.253906 336.398438 650.253906 Z M 544.527344 641.332031 L 342.082031 641.332031 C 346.855469 619.273438 348.722656 582.808594 349.421875 561.929688 C 349.601562 556.644531 347.664062 551.65625 343.972656 547.875 C 340.277344 544.089844 335.332031 542.023438 330.042969 542.089844 L 262.683594 542.761719 C 262.625 542.761719 262.566406 542.761719 262.507812 542.761719 C 257.378906 542.761719 252.550781 540.527344 249.226562 536.617188 C 245.863281 532.660156 244.449219 527.460938 245.335938 522.347656 L 246.214844 517.304688 C 246.539062 515.433594 246.660156 513.519531 246.578125 511.617188 L 246.257812 504.46875 C 246.023438 499.148438 244.207031 494.085938 241.015625 489.824219 L 238.175781 486.042969 C 237.207031 484.746094 237.316406 482.960938 238.445312 481.796875 L 241.753906 478.375 C 243.433594 476.640625 244.179688 474.1875 243.746094 471.808594 C 243.3125 469.433594 241.75 467.402344 239.566406 466.371094 L 236.773438 465.050781 C 235.230469 464.320312 234.507812 462.5625 235.09375 460.960938 L 243.011719 439.304688 C 244.921875 434.070312 242.242188 428.199219 237.035156 426.214844 L 218.796875 419.265625 C 217.054688 418.601562 216.359375 417.234375 216.097656 416.472656 C 215.839844 415.714844 215.550781 414.207031 216.519531 412.613281 L 247.742188 361.320312 C 253.519531 351.828125 255.132812 340.242188 252.171875 329.535156 L 248.0625 314.679688 C 246.859375 310.332031 246.601562 305.699219 247.316406 301.289062 C 253.476562 263.316406 268.929688 231.375 292.011719 208.914062 C 315.21875 186.328125 346.171875 173.367188 381.523438 171.429688 C 429.976562 168.773438 470.460938 174.339844 501.847656 187.976562 C 521.703125 196.605469 538.09375 208.601562 550.5625 223.628906 C 564.683594 240.648438 574.175781 262.042969 578.773438 287.214844 C 594.171875 371.5 539.96875 448.640625 515.945312 477.894531 C 508.078125 487.476562 505.363281 500.34375 508.6875 512.316406 L 544.523438 641.332031 Z M 544.527344 641.332031 " fill-opacity="1" fill-rule="nonzero"/></g><path fill="#000000" d="M 411.730469 350.855469 C 412.871094 350.855469 414.015625 350.421875 414.886719 349.550781 L 472.515625 291.921875 C 486.644531 277.792969 486.644531 254.800781 472.515625 240.671875 C 458.386719 226.542969 435.394531 226.542969 421.269531 240.671875 L 411.730469 250.210938 L 402.191406 240.671875 C 395.347656 233.828125 386.246094 230.058594 376.566406 230.058594 C 366.886719 230.058594 357.789062 233.828125 350.941406 240.671875 C 336.816406 254.800781 336.816406 277.792969 350.941406 291.921875 L 408.574219 349.550781 C 409.445312 350.421875 410.585938 350.859375 411.730469 350.859375 Z M 446.890625 238.996094 C 453.886719 238.996094 460.878906 241.660156 466.203125 246.984375 C 476.851562 257.632812 476.851562 274.960938 466.203125 285.609375 L 411.730469 340.082031 L 357.257812 285.609375 C 346.609375 274.960938 346.609375 257.632812 357.257812 246.984375 C 362.414062 241.824219 369.273438 238.984375 376.570312 238.984375 C 383.863281 238.984375 390.722656 241.824219 395.878906 246.984375 L 408.574219 259.675781 C 410.316406 261.421875 413.140625 261.421875 414.886719 259.675781 L 427.578125 246.984375 C 432.902344 241.660156 439.898438 238.996094 446.890625 238.996094 Z M 446.890625 238.996094 " fill-opacity="1" fill-rule="nonzero"/><path fill="#000000" d="M 456.792969 418.902344 C 460.980469 418.902344 464.882812 416.832031 467.230469 413.363281 C 469.578125 409.898438 470.050781 405.503906 468.496094 401.617188 C 468.496094 401.617188 466.316406 396.171875 466.316406 396.171875 C 465.027344 392.941406 465.585938 389.425781 467.816406 386.761719 C 470.066406 384.082031 473.460938 382.90625 476.898438 383.621094 C 489.175781 386.171875 498.996094 386.40625 506.089844 384.320312 C 514.851562 381.742188 522.574219 374.371094 529.042969 362.410156 C 532.515625 355.992188 534.644531 350.011719 535.527344 347.300781 C 541.351562 342.941406 564.703125 324.113281 566.253906 301.332031 C 567.730469 279.671875 553.621094 266.671875 548.363281 262.613281 C 548.027344 259.398438 547.015625 253.242188 543.957031 246.5625 C 540.007812 237.9375 531.820312 226.800781 515.152344 221.921875 C 511.046875 216.101562 494.683594 196.496094 457.921875 191.898438 C 455.375 190.445312 447.789062 186.53125 436.75 184.378906 C 424.652344 182.023438 405.890625 181.414062 384.71875 191.632812 C 377.429688 190.882812 344.601562 188.765625 330.785156 209.625 C 323.113281 210.289062 300.566406 214.191406 289.070312 237.179688 C 286.375 238.910156 279.78125 243.550781 274.164062 250.703125 C 264.964844 262.410156 262.535156 275.433594 267.066406 288.519531 C 265.503906 290.886719 263.257812 295 262.148438 300.398438 C 260.566406 308.09375 261.003906 319.988281 271.851562 333.285156 C 272.90625 336.472656 276.792969 345.84375 287.46875 351.914062 C 298.777344 358.347656 313.765625 359.011719 332.050781 353.898438 C 335.417969 357.207031 342.929688 364.003906 353.734375 370.472656 C 373.292969 382.175781 394.425781 387.175781 414.851562 384.929688 C 417.734375 384.609375 420.640625 385.714844 422.632812 387.871094 L 447.53125 414.847656 C 449.910156 417.425781 453.289062 418.902344 456.792969 418.902344 Z M 460.207031 404.933594 C 460.667969 406.082031 460.535156 407.332031 459.839844 408.359375 C 459.144531 409.386719 458.035156 409.976562 456.792969 409.976562 C 455.769531 409.976562 454.785156 409.542969 454.089844 408.792969 L 429.191406 381.816406 C 425.285156 377.582031 419.5625 375.429688 413.875 376.054688 C 395.226562 378.109375 376.617188 373.699219 358.5625 362.957031 C 344.921875 354.835938 336.753906 345.949219 336.671875 345.863281 C 335.511719 344.585938 333.71875 344.089844 332.070312 344.59375 C 315.132812 349.746094 301.667969 349.632812 292.046875 344.246094 C 282.605469 338.964844 280.28125 330.394531 280.183594 330.03125 C 280.023438 329.367188 279.714844 328.777344 279.273438 328.253906 C 262.230469 307.984375 274.914062 292.769531 275.460938 292.132812 C 276.585938 290.859375 276.871094 289.078125 276.222656 287.507812 C 271.785156 276.695312 273.398438 266.238281 281.027344 256.417969 C 287.042969 248.664062 294.671875 244.203125 294.75 244.15625 C 295.535156 243.703125 296.175781 243.011719 296.5625 242.1875 C 307.523438 218.835938 332.332031 218.421875 333.382812 218.417969 C 334.992188 218.40625 336.484375 217.535156 337.265625 216.128906 C 348.515625 195.972656 384.542969 200.589844 384.90625 200.640625 C 385.792969 200.757812 386.703125 200.609375 387.503906 200.207031 C 402.964844 192.480469 418.832031 190.074219 434.660156 193.066406 C 446.554688 195.316406 453.992188 199.9375 454.0625 199.984375 C 454.628906 200.339844 455.273438 200.574219 455.9375 200.648438 C 467.039062 201.945312 483.140625 205.671875 496.8125 216.050781 C 504.988281 222.257812 508.480469 227.996094 508.515625 228.054688 C 509.117188 229.0625 510.101562 229.804688 511.234375 230.101562 C 538.636719 237.1875 539.578125 263.96875 539.601562 265.105469 C 539.636719 266.589844 540.410156 267.976562 541.660156 268.777344 C 542.347656 269.222656 558.753906 280.113281 557.347656 300.722656 C 555.902344 321.929688 529.410156 340.71875 529.144531 340.90625 C 528.304688 341.496094 527.691406 342.355469 527.410156 343.339844 C 525.191406 351.054688 516.582031 371.929688 503.570312 375.757812 C 497.980469 377.398438 489.382812 377.097656 478.710938 374.882812 C 472.101562 373.507812 465.304688 375.863281 460.972656 381.027344 C 456.597656 386.253906 455.496094 393.152344 458.03125 399.488281 Z M 460.207031 404.933594 " fill-opacity="1" fill-rule="nonzero"/><path fill="#000000" d="M 439.402344 238.984375 C 441.40625 238.984375 443.230469 237.625 443.730469 235.59375 C 444.597656 232.101562 446.304688 228.90625 448.675781 226.351562 C 450.527344 224.359375 452.816406 222.667969 455.242188 220.871094 C 456.417969 220.003906 457.632812 219.101562 458.824219 218.148438 C 464.070312 213.941406 467.203125 209.621094 468.394531 204.949219 C 469.003906 202.558594 467.5625 200.128906 465.171875 199.519531 C 462.785156 198.914062 460.355469 200.355469 459.746094 202.742188 C 459.050781 205.472656 456.921875 208.234375 453.242188 211.183594 C 452.1875 212.03125 451.09375 212.839844 449.933594 213.695312 C 447.289062 215.65625 444.550781 217.679688 442.136719 220.28125 C 438.738281 223.941406 436.292969 228.492188 435.066406 233.449219 C 434.476562 235.839844 435.933594 238.261719 438.328125 238.851562 C 438.6875 238.941406 439.046875 238.984375 439.402344 238.984375 Z M 439.402344 238.984375 " fill-opacity="1" fill-rule="nonzero"/><path fill="#000000" d="M 482.132812 251.144531 C 485.371094 251.144531 490.347656 250.601562 493.222656 246.5 C 494.890625 244.128906 495.445312 241.074219 494.871094 237.429688 C 494.738281 236.601562 494.570312 235.824219 494.410156 235.074219 C 494.171875 233.980469 493.949219 232.949219 493.925781 232.070312 C 493.863281 229.609375 491.796875 227.660156 489.347656 227.726562 C 486.882812 227.792969 484.9375 229.84375 485.003906 232.308594 C 485.046875 234.019531 485.386719 235.582031 485.6875 236.964844 C 485.828125 237.621094 485.960938 238.242188 486.054688 238.824219 C 486.277344 240.246094 486.121094 241.085938 485.917969 241.371094 C 485.660156 241.742188 484.628906 242.339844 480.6875 242.179688 L 474.679688 241.933594 C 472.214844 241.824219 470.140625 243.75 470.039062 246.210938 C 469.9375 248.675781 471.855469 250.753906 474.316406 250.851562 L 480.324219 251.097656 C 480.824219 251.117188 481.4375 251.144531 482.132812 251.144531 Z M 482.132812 251.144531 " fill-opacity="1" fill-rule="nonzero"/><path fill="#000000" d="M 497.105469 307.605469 C 499.238281 307.605469 501.613281 307.128906 503.730469 305.542969 C 505.542969 304.1875 506.890625 302.203125 507.847656 299.472656 C 509.457031 294.871094 509.605469 289.757812 508.265625 285.074219 C 507.742188 283.253906 507.035156 281.59375 506.351562 279.984375 C 505.367188 277.675781 504.441406 275.496094 504.421875 273.53125 C 504.414062 272.453125 504.679688 271.253906 504.964844 270.113281 C 505.566406 267.722656 504.117188 265.296875 501.726562 264.695312 C 499.335938 264.097656 496.910156 265.546875 496.308594 267.9375 C 495.875 269.652344 495.480469 271.527344 495.496094 273.609375 C 495.53125 277.355469 496.914062 280.609375 498.136719 283.480469 C 498.742188 284.902344 499.3125 286.242188 499.683594 287.535156 C 500.519531 290.457031 500.429688 293.648438 499.421875 296.519531 C 498.949219 297.863281 498.539062 298.28125 498.382812 298.394531 C 498.15625 298.566406 497.167969 299.046875 494.035156 298.105469 C 489.878906 296.855469 485.96875 294.957031 482.414062 292.460938 C 480.394531 291.046875 477.613281 291.535156 476.195312 293.554688 C 474.78125 295.574219 475.269531 298.355469 477.289062 299.769531 C 481.625 302.8125 486.394531 305.128906 491.464844 306.652344 C 492.484375 306.960938 494.628906 307.605469 497.105469 307.605469 Z M 497.105469 307.605469 " fill-opacity="1" fill-rule="nonzero"/><path fill="#000000" d="M 478.496094 362.617188 C 484.171875 362.617188 489.851562 361.820312 495.3125 360.21875 C 499.839844 358.890625 503.226562 357.257812 505.964844 355.078125 C 510.320312 351.609375 512.914062 346.851562 514.871094 342.65625 C 515.136719 342.09375 515.8125 340.652344 516.261719 340.214844 C 516.386719 340.222656 516.625 340.25 517.046875 340.335938 C 520.695312 341.089844 524.121094 343.191406 526.445312 346.105469 C 527.980469 348.03125 530.789062 348.347656 532.71875 346.8125 C 534.644531 345.277344 534.960938 342.46875 533.425781 340.539062 C 529.769531 335.957031 524.59375 332.777344 518.847656 331.59375 C 517.519531 331.320312 515.75 331.070312 513.847656 331.59375 C 509.652344 332.746094 507.859375 336.585938 506.785156 338.878906 C 505.265625 342.136719 503.316406 345.777344 500.40625 348.09375 C 498.601562 349.53125 496.183594 350.664062 492.800781 351.652344 C 482.332031 354.722656 470.925781 354.320312 460.699219 350.511719 C 458.695312 349.765625 456.214844 348.695312 454.808594 347 C 453.472656 345.394531 452.816406 342.914062 452.304688 340.710938 C 451.445312 336.996094 451.832031 335.117188 452.480469 334.601562 C 454.410156 333.066406 454.726562 330.257812 453.195312 328.328125 C 451.660156 326.398438 448.851562 326.082031 446.921875 327.613281 C 443.101562 330.652344 441.988281 335.738281 443.613281 342.730469 C 444.410156 346.164062 445.484375 349.746094 447.941406 352.703125 C 450.699219 356.023438 454.542969 357.746094 457.585938 358.878906 C 464.269531 361.367188 471.382812 362.617188 478.496094 362.617188 Z M 516.140625 340.21875 Z M 516.140625 340.21875 " fill-opacity="1" fill-rule="nonzero"/><path fill="#000000" d="M 531.507812 316.292969 C 532.246094 316.292969 532.996094 316.109375 533.6875 315.722656 C 539.519531 312.449219 543.800781 306.851562 545.429688 300.363281 C 547.0625 293.878906 545.9375 286.921875 542.34375 281.28125 C 540.117188 277.785156 537.195312 275.109375 534.144531 272.449219 C 532.035156 270.613281 527.101562 266.316406 521.21875 267.726562 C 518.820312 268.300781 517.34375 270.710938 517.917969 273.105469 C 518.492188 275.503906 520.898438 276.980469 523.300781 276.40625 C 524.234375 276.183594 525.910156 277.117188 528.28125 279.179688 C 530.917969 281.476562 533.226562 283.582031 534.816406 286.074219 C 537.0625 289.601562 537.796875 294.132812 536.773438 298.1875 C 535.753906 302.246094 532.96875 305.890625 529.320312 307.9375 C 527.171875 309.140625 526.40625 311.863281 527.609375 314.011719 C 528.429688 315.472656 529.945312 316.292969 531.507812 316.292969 Z M 531.507812 316.292969 " fill-opacity="1" fill-rule="nonzero"/><path fill="#000000" d="M 385.511719 363.664062 C 387.507812 363.664062 389.324219 362.3125 389.835938 360.289062 C 390.4375 357.898438 388.988281 355.472656 386.597656 354.871094 C 379.730469 353.140625 374.535156 345.988281 375.015625 338.921875 C 375.03125 338.675781 375.050781 338.503906 375.070312 338.390625 C 375.320312 338.285156 375.847656 338.132812 376.699219 338.082031 C 379.734375 337.90625 382.9375 338.542969 386.328125 339.21875 C 390.804688 340.113281 395.429688 341.035156 400.375 340.265625 C 402.808594 339.890625 404.476562 337.605469 404.101562 335.171875 C 403.722656 332.738281 401.441406 331.070312 399.003906 331.445312 C 395.625 331.972656 391.957031 331.242188 388.074219 330.46875 C 384.277344 329.710938 380.351562 328.929688 376.179688 329.171875 C 371.96875 329.421875 368.792969 331.136719 367.234375 334.003906 C 366.394531 335.546875 366.191406 337.117188 366.109375 338.316406 C 365.335938 349.675781 373.378906 360.75 384.417969 363.527344 C 384.785156 363.621094 385.148438 363.664062 385.511719 363.664062 Z M 385.511719 363.664062 " fill-opacity="1" fill-rule="nonzero"/><path fill="#000000" d="M 334.300781 351.039062 C 334.730469 351.039062 335.164062 350.976562 335.59375 350.84375 C 337.953125 350.132812 339.289062 347.640625 338.578125 345.28125 C 337.761719 342.582031 338.292969 339.492188 339.964844 337.21875 C 340.574219 336.390625 341.402344 335.550781 342.28125 334.660156 C 344.289062 332.625 346.5625 330.320312 347.570312 326.886719 C 348.328125 324.300781 348.226562 321.390625 347.269531 318.242188 C 344.226562 308.261719 334.085938 301.207031 323.660156 301.828125 C 321.199219 301.976562 319.324219 304.089844 319.472656 306.550781 C 319.621094 309.011719 321.730469 310.886719 324.195312 310.738281 C 330.5 310.351562 336.886719 314.796875 338.730469 320.84375 C 339.167969 322.277344 339.261719 323.5 339.003906 324.375 C 338.628906 325.648438 337.378906 326.921875 335.925781 328.390625 C 334.914062 329.417969 333.765625 330.582031 332.777344 331.929688 C 329.472656 336.417969 328.417969 342.523438 330.03125 347.863281 C 330.613281 349.792969 332.386719 351.035156 334.300781 351.035156 Z M 334.300781 351.039062 " fill-opacity="1" fill-rule="nonzero"/><path fill="#000000" d="M 277.519531 337.703125 C 279.71875 337.703125 281.636719 336.078125 281.9375 333.835938 L 283.691406 320.847656 C 283.8125 319.953125 284.0625 318.097656 284.535156 317.628906 C 284.734375 317.433594 285.589844 317.257812 286.582031 317.597656 C 288.050781 318.101562 289.574219 319.386719 291.042969 320.628906 C 292.929688 322.21875 295.742188 321.980469 297.332031 320.097656 C 298.921875 318.214844 298.683594 315.398438 296.800781 313.808594 C 294.898438 312.203125 292.53125 310.207031 289.484375 309.15625 C 285.402344 307.753906 281 308.582031 278.273438 311.269531 C 275.625 313.878906 275.136719 317.492188 274.84375 319.652344 L 273.089844 332.644531 C 272.761719 335.085938 274.476562 337.332031 276.917969 337.664062 C 277.121094 337.691406 277.320312 337.703125 277.519531 337.703125 Z M 277.519531 337.703125 " fill-opacity="1" fill-rule="nonzero"/><path fill="#000000" d="M 282.128906 294.925781 C 285.929688 294.925781 290 293.898438 294.03125 291.847656 C 303.695312 286.9375 310.996094 277.714844 313.558594 267.179688 C 314.140625 264.785156 312.671875 262.371094 310.277344 261.789062 C 307.886719 261.207031 305.46875 262.675781 304.886719 265.070312 C 302.929688 273.105469 297.359375 280.144531 289.984375 283.890625 C 285.347656 286.25 280.746094 286.644531 277.683594 284.953125 C 275.527344 283.761719 272.8125 284.546875 271.621094 286.703125 C 270.429688 288.863281 271.210938 291.578125 273.371094 292.769531 C 275.980469 294.210938 278.960938 294.925781 282.128906 294.925781 Z M 282.128906 294.925781 " fill-opacity="1" fill-rule="nonzero"/><path fill="#000000" d="M 302.269531 248.59375 L 302.289062 248.59375 C 309.640625 248.5625 317.4375 248.34375 324.871094 246.121094 C 329.730469 244.667969 333.734375 242.515625 336.773438 239.730469 C 340.695312 236.132812 343.070312 231.320312 343.289062 226.527344 C 343.539062 221.003906 341.039062 216.21875 339.136719 213.101562 C 337.851562 211 335.105469 210.335938 333.003906 211.621094 C 330.898438 212.902344 330.234375 215.648438 331.519531 217.753906 C 333.574219 221.117188 334.480469 223.777344 334.371094 226.121094 C 334.261719 228.574219 332.9375 231.136719 330.742188 233.152344 C 328.703125 235.019531 325.867188 236.503906 322.316406 237.566406 C 316.011719 239.453125 309.226562 239.636719 302.25 239.667969 C 299.785156 239.679688 297.792969 241.683594 297.804688 244.148438 C 297.816406 246.609375 299.8125 248.59375 302.265625 248.59375 Z M 302.269531 248.59375 " fill-opacity="1" fill-rule="nonzero"/><path fill="#000000" d="M 364.496094 241.132812 C 365.703125 241.132812 366.90625 240.648438 367.785156 239.691406 C 370.144531 237.125 373.738281 235.980469 377.90625 234.65625 C 380.957031 233.683594 384.117188 232.679688 387.128906 230.976562 C 390.363281 229.152344 392.769531 226.902344 394.289062 224.292969 C 396.832031 219.910156 397.066406 214.179688 394.945312 208.15625 C 393.164062 203.089844 390.15625 198.613281 387.507812 194.667969 C 386.132812 192.621094 383.355469 192.078125 381.3125 193.453125 C 379.265625 194.828125 378.722656 197.601562 380.097656 199.648438 C 382.566406 203.324219 385.121094 207.121094 386.523438 211.117188 C 387.746094 214.585938 387.761719 217.753906 386.570312 219.808594 C 385.859375 221.027344 384.570312 222.167969 382.738281 223.207031 C 380.53125 224.453125 377.9375 225.277344 375.195312 226.148438 C 370.5 227.644531 365.175781 229.339844 361.210938 233.652344 C 359.542969 235.464844 359.664062 238.289062 361.476562 239.957031 C 362.335938 240.746094 363.417969 241.132812 364.496094 241.132812 Z M 364.496094 241.132812 " fill-opacity="1" fill-rule="nonzero"/></svg>